{
  "source": "C:\\Users\\Peter\\Desktop\\stuff\\MIUN\\quantitative_research\\video_compression\\videos\\HEVC_CLASS_B\\Cactus_1920x1080_50.y4m",
  "output": "C:\\Users\\Peter\\Desktop\\stuff\\MIUN\\quantitative_research\\video_compression\\compressed_videos\\HEVC_CLASS_B\\hevc\\1.5\\Cactus_1920x1080_50_hevc.mp4",
  "codec": "hevc",
  "ok": "Input #0, yuv4mpegpipe, from 'C:\\Users\\Peter\\Desktop\\stuff\\MIUN\\quantitative_research\\video_compression\\videos\\HEVC_CLASS_B\\Cactus_1920x1080_50.y4m':\n  Duration: 00:00:10.00, start: 0.000000, bitrate: 1244162 kb/s\n  Stream #0:0: Video: rawvideo (I420 / 0x30323449), yuv420p(progressive), 1920x1080, 50 fps, 50 tbr, 50 tbn\n[out#0/mp4 @ 000001693269b680] Codec AVOption b:a (set bitrate (in bits/s)) has not been used for any stream. The most likely reason is either wrong type (e.g. a video option with no video streams) or that it is a private option of some decoder which was not actually used for any stream.\nStream mapping:\n  Stream #0:0 -> #0:0 (rawvideo (native) -> hevc (libx265))\nPress [q] to stop, [?] for help\n[libx265 @ 000001693269cac0] Unknown option: \"aq-mode.\nx265 [info]: HEVC encoder version 4.1+190-8f11c33ac\nx265 [info]: build info [Windows][GCC 15.1.0][64 bit] 10bit\nx265 [info]: using cpu capabilities: MMX2 SSE2Fast LZCNT SSSE3 SSE4.2 AVX FMA3 BMI2 AVX2\nx265 [info]: Main 10 profile, Level-4.1 (Main tier)\nx265 [info]: Thread pool created using 12 threads\nx265 [info]: Slices                              : 1\nx265 [info]: frame threads / pool features       : 3 / wpp(17 rows)\nx265 [info]: Coding QT: max CU size, min CU size : 64 / 8\nx265 [info]: Residual QT: max TU size, max depth : 32 / 1 inter / 1 intra\nx265 [info]: ME / range / subpel / merge         : star / 57 / 3 / 3\nx265 [info]: Keyframe min / max / scenecut / bias  : 25 / 250 / 40 / 5.00 \nx265 [info]: Lookahead / bframes / badapt        : 25 / 4 / 2\nx265 [info]: b-pyramid / weightp / weightb       : 1 / 1 / 0\nx265 [info]: References / ref-limit  cu / depth  : 4 / on / on\nx265 [info]: AQ: mode / str / qg-size / cu-tree  : 2 / 1.0 / 32 / 1\nx265 [info]: Rate Control / qCompress            : ABR-1500 kbps / 0.60\nx265 [info]: VBV/HRD buffer / max-rate / init    : 1500 / 1500 / 0.750\nx265 [info]: tools: rect limit-modes rd=4 psy-rd=2.00 rdoq=2 psy-rdoq=1.00\nx265 [info]: tools: rskip mode=1 signhide tmvp strong-intra-smoothing lslices=4\nx265 [info]: tools: deblock sao dhdr10-info\nOutput #0, mp4, to 'C:\\Users\\Peter\\Desktop\\stuff\\MIUN\\quantitative_research\\video_compression\\compressed_videos\\HEVC_CLASS_B\\hevc\\1.5\\Cactus_1920x1080_50_hevc.mp4':\n  Metadata:\n    encoder         : Lavf62.3.100\n  Stream #0:0: Video: hevc (hev1 / 0x31766568), yuv420p10le(tv, progressive), 1920x1080, q=2-31, 1500 kb/s, 50 fps, 12800 tbn\n    Metadata:\n      encoder         : Lavc62.11.100 libx265\n    Side data:\n      cpb: bitrate max/min/avg: 1500000/0/1500000 buffer size: 1500000 vbv_delay: N/A\nframe=    0 fps=0.0 q=0.0 size=       0KiB time=N/A bitrate=N/A speed=N/A elapsed=0:00:00.51    \nframe=    0 fps=0.0 q=0.0 size=       0KiB time=N/A bitrate=N/A speed=N/A elapsed=0:00:01.06    \nframe=    0 fps=0.0 q=0.0 size=       0KiB time=N/A bitrate=N/A speed=N/A elapsed=0:00:01.59    \nframe=    0 fps=0.0 q=0.0 size=       0KiB time=N/A bitrate=N/A speed=N/A elapsed=0:00:02.12    \nframe=    0 fps=0.0 q=0.0 size=       0KiB time=N/A bitrate=N/A speed=N/A elapsed=0:00:02.68    \nframe=    0 fps=0.0 q=0.0 size=       0KiB time=N/A bitrate=N/A speed=N/A elapsed=0:00:03.22    \nframe=    0 fps=0.0 q=0.0 size=       0KiB time=N/A bitrate=N/A speed=N/A elapsed=0:00:03.74    \nframe=    0 fps=0.0 q=0.0 size=       0KiB time=N/A bitrate=N/A speed=N/A elapsed=0:00:04.29    \nframe=    0 fps=0.0 q=0.0 size=       0KiB time=N/A bitrate=N/A speed=N/A elapsed=0:00:04.84    \nframe=    0 fps=0.0 q=0.0 size=       0KiB time=N/A bitrate=N/A speed=N/A elapsed=0:00:05.38    \nframe=    0 fps=0.0 q=0.0 size=       0KiB time=N/A bitrate=N/A speed=N/A elapsed=0:00:05.92    \nframe=    0 fps=0.0 q=0.0 size=       0KiB time=N/A bitrate=N/A speed=N/A elapsed=0:00:06.44    \nframe=    0 fps=0.0 q=0.0 size=       0KiB time=N/A bitrate=N/A speed=N/A elapsed=0:00:06.96    \nframe=    0 fps=0.0 q=0.0 size=       0KiB time=N/A bitrate=N/A speed=N/A elapsed=0:00:07.48    \nframe=    0 fps=0.0 q=0.0 size=       0KiB time=N/A bitrate=N/A speed=N/A elapsed=0:00:08.00    \nframe=    1 fps=0.1 q=44.7 size=       0KiB time=-00:00:00.02 bitrate=N/A speed=N/A elapsed=0:00:08.54    \nframe=    2 fps=0.2 q=48.9 size=       0KiB time=00:00:00.00 bitrate=N/A speed=   0x elapsed=0:00:09.07    \nframe=    3 fps=0.3 q=51.0 size=       0KiB time=00:00:00.02 bitrate=  17.6kbits/s speed=0.00207x elapsed=0:00:09.64    \nframe=    3 fps=0.3 q=51.0 size=       0KiB time=00:00:00.02 bitrate=  17.6kbits/s speed=0.00197x elapsed=0:00:10.16    \nframe=    3 fps=0.3 q=51.0 size=       0KiB time=00:00:00.02 bitrate=  17.6kbits/s speed=0.00187x elapsed=0:00:10.68    \nframe=    4 fps=0.4 q=51.0 size=       0KiB time=00:00:00.04 bitrate=   8.8kbits/s speed=0.00356x elapsed=0:00:11.24    \nframe=    4 fps=0.3 q=51.0 size=       0KiB time=00:00:00.04 bitrate=   8.8kbits/s speed=0.00339x elapsed=0:00:11.78    \nframe=    6 fps=0.5 q=44.1 size=       0KiB time=00:00:00.08 bitrate=   4.4kbits/s speed=0.00649x elapsed=0:00:12.32    \nframe=    7 fps=0.5 q=46.9 size=       0KiB time=00:00:00.10 bitrate=   3.5kbits/s speed=0.00778x elapsed=0:00:12.86    \nframe=    8 fps=0.6 q=45.7 size=       0KiB time=00:00:00.12 bitrate=   2.9kbits/s speed=0.00896x elapsed=0:00:13.38    \nframe=    9 fps=0.6 q=46.4 size=       0KiB time=00:00:00.14 bitrate=   2.5kbits/s speed=0.0101x elapsed=0:00:13.91    \nframe=   10 fps=0.7 q=46.0 size=       0KiB time=00:00:00.16 bitrate=   2.2kbits/s speed=0.0111x elapsed=0:00:14.43    \nframe=   11 fps=0.7 q=40.6 size=       0KiB time=00:00:00.18 bitrate=   2.0kbits/s speed=0.012x elapsed=0:00:14.96    \nframe=   12 fps=0.8 q=46.3 size=       0KiB time=00:00:00.20 bitrate=   1.8kbits/s speed=0.0129x elapsed=0:00:15.48    \nframe=   12 fps=0.7 q=46.3 size=       0KiB time=00:00:00.20 bitrate=   1.8kbits/s speed=0.0125x elapsed=0:00:16.00    \nframe=   13 fps=0.8 q=46.9 size=       0KiB time=00:00:00.22 bitrate=   1.6kbits/s speed=0.0133x elapsed=0:00:16.52    \nframe=   13 fps=0.8 q=46.9 size=       0KiB time=00:00:00.22 bitrate=   1.6kbits/s speed=0.0129x elapsed=0:00:17.03    \nframe=   14 fps=0.8 q=48.0 size=       0KiB time=00:00:00.24 bitrate=   1.5kbits/s speed=0.0137x elapsed=0:00:17.55    \nframe=   14 fps=0.8 q=48.0 size=       0KiB time=00:00:00.24 bitrate=   1.5kbits/s speed=0.0133x elapsed=0:00:18.08    \nframe=   14 fps=0.8 q=48.0 size=       0KiB time=00:00:00.24 bitrate=   1.5kbits/s speed=0.0129x elapsed=0:00:18.59    \nframe=   15 fps=0.8 q=42.1 size=       0KiB time=00:00:00.26 bitrate=   1.4kbits/s speed=0.0136x elapsed=0:00:19.11    \nframe=   17 fps=0.9 q=47.6 size=       0KiB time=00:00:00.30 bitrate=   1.2kbits/s speed=0.0153x elapsed=0:00:19.63    \nframe=   17 fps=0.8 q=47.6 size=       0KiB time=00:00:00.30 bitrate=   1.2kbits/s speed=0.0149x elapsed=0:00:20.13    \nframe=   18 fps=0.9 q=46.6 size=       0KiB time=00:00:00.32 bitrate=   1.1kbits/s speed=0.0155x elapsed=0:00:20.66    \nframe=   19 fps=0.9 q=46.7 size=       0KiB time=00:00:00.34 bitrate=   1.0kbits/s speed=0.0161x elapsed=0:00:21.17    \nframe=   21 fps=1.0 q=45.6 size=       0KiB time=00:00:00.38 bitrate=   0.9kbits/s speed=0.0175x elapsed=0:00:21.69    \nframe=   21 fps=0.9 q=45.6 size=       0KiB time=00:00:00.38 bitrate=   0.9kbits/s speed=0.0171x elapsed=0:00:22.22    \nframe=   21 fps=0.9 q=45.6 size=       0KiB time=00:00:00.38 bitrate=   0.9kbits/s speed=0.0167x elapsed=0:00:22.75    \nframe=   21 fps=0.9 q=45.6 size=       0KiB time=00:00:00.38 bitrate=   0.9kbits/s speed=0.0163x elapsed=0:00:23.29    \nframe=   21 fps=0.9 q=45.6 size=       0KiB time=00:00:00.38 bitrate=   0.9kbits/s speed=0.0159x elapsed=0:00:23.85    \nframe=   22 fps=0.9 q=46.6 size=       0KiB time=00:00:00.40 bitrate=   0.9kbits/s speed=0.0164x elapsed=0:00:24.45    \nframe=   22 fps=0.9 q=46.6 size=       0KiB time=00:00:00.40 bitrate=   0.9kbits/s speed=0.016x elapsed=0:00:25.00    \nframe=   22 fps=0.9 q=46.6 size=       0KiB time=00:00:00.40 bitrate=   0.9kbits/s speed=0.0156x elapsed=0:00:25.63    \nframe=   22 fps=0.8 q=46.6 size=       0KiB time=00:00:00.40 bitrate=   0.9kbits/s speed=0.0153x elapsed=0:00:26.19    \nframe=   22 fps=0.8 q=46.6 size=       0KiB time=00:00:00.40 bitrate=   0.9kbits/s speed=0.0149x elapsed=0:00:26.77    \nframe=   22 fps=0.8 q=46.6 size=       0KiB time=00:00:00.40 bitrate=   0.9kbits/s speed=0.0146x elapsed=0:00:27.34    \nframe=   22 fps=0.8 q=46.6 size=       0KiB time=00:00:00.40 bitrate=   0.9kbits/s speed=0.0143x elapsed=0:00:27.92    \nframe=   22 fps=0.8 q=46.6 size=       0KiB time=00:00:00.40 bitrate=   0.9kbits/s speed=0.0141x elapsed=0:00:28.46    \nframe=   22 fps=0.8 q=46.6 size=       0KiB time=00:00:00.40 bitrate=   0.9kbits/s speed=0.0138x elapsed=0:00:28.99    \nframe=   23 fps=0.8 q=46.6 size=       0KiB time=00:00:00.42 bitrate=   0.8kbits/s speed=0.0142x elapsed=0:00:29.55    \nframe=   23 fps=0.8 q=46.6 size=       0KiB time=00:00:00.42 bitrate=   0.8kbits/s speed=0.014x elapsed=0:00:30.08    \nframe=   23 fps=0.8 q=46.6 size=       0KiB time=00:00:00.42 bitrate=   0.8kbits/s speed=0.0137x elapsed=0:00:30.63    \nframe=   23 fps=0.7 q=46.6 size=       0KiB time=00:00:00.42 bitrate=   0.8kbits/s speed=0.0135x elapsed=0:00:31.19    \nframe=   23 fps=0.7 q=46.6 size=       0KiB time=00:00:00.42 bitrate=   0.8kbits/s speed=0.0132x elapsed=0:00:31.78    \nframe=   25 fps=0.8 q=44.6 size=       0KiB time=00:00:00.44 bitrate=   0.8kbits/s speed=0.0136x elapsed=0:00:32.36    \nframe=   25 fps=0.8 q=44.6 size=       0KiB time=00:00:00.46 bitrate=   0.8kbits/s speed=0.014x elapsed=0:00:32.94    \nframe=   25 fps=0.7 q=44.6 size=       0KiB time=00:00:00.46 bitrate=   0.8kbits/s speed=0.0137x elapsed=0:00:33.46    \nframe=   25 fps=0.7 q=44.6 size=       0KiB time=00:00:00.46 bitrate=   0.8kbits/s speed=0.0135x elapsed=0:00:33.98    \nframe=   26 fps=0.8 q=46.6 size=       0KiB time=00:00:00.48 bitrate=   0.7kbits/s speed=0.0139x elapsed=0:00:34.50    \nframe=   27 fps=0.8 q=45.8 size=       0KiB time=00:00:00.50 bitrate=   0.7kbits/s speed=0.0143x elapsed=0:00:35.03    \nframe=   27 fps=0.8 q=45.8 size=       0KiB time=00:00:00.50 bitrate=   0.7kbits/s speed=0.0141x elapsed=0:00:35.56    \nframe=   28 fps=0.8 q=40.6 size=       0KiB time=00:00:00.52 bitrate=   0.7kbits/s speed=0.0144x elapsed=0:00:36.08    \nframe=   29 fps=0.8 q=44.4 size=       0KiB time=00:00:00.54 bitrate=   0.7kbits/s speed=0.0147x elapsed=0:00:36.62    \nframe=   29 fps=0.8 q=44.4 size=       0KiB time=00:00:00.54 bitrate=   0.7kbits/s speed=0.0145x elapsed=0:00:37.15    \nframe=   30 fps=0.8 q=45.7 size=       0KiB time=00:00:00.56 bitrate=   0.6kbits/s speed=0.0149x elapsed=0:00:37.67    \nframe=   31 fps=0.8 q=45.7 size=       0KiB time=00:00:00.58 bitrate=   0.6kbits/s speed=0.0152x elapsed=0:00:38.21    \nframe=   31 fps=0.8 q=45.7 size=       0KiB time=00:00:00.58 bitrate=   0.6kbits/s speed=0.015x elapsed=0:00:38.73    \nframe=   32 fps=0.8 q=41.1 size=       0KiB time=00:00:00.60 bitrate=   0.6kbits/s speed=0.0153x elapsed=0:00:39.26    \nframe=   33 fps=0.8 q=44.3 size=       0KiB time=00:00:00.62 bitrate=   0.6kbits/s speed=0.0156x elapsed=0:00:39.81    \nframe=   34 fps=0.8 q=45.7 size=       0KiB time=00:00:00.64 bitrate=   0.6kbits/s speed=0.0159x elapsed=0:00:40.35    \nframe=   34 fps=0.8 q=45.7 size=       0KiB time=00:00:00.64 bitrate=   0.6kbits/s speed=0.0157x elapsed=0:00:40.88    \nframe=   34 fps=0.8 q=45.7 size=       0KiB time=00:00:00.64 bitrate=   0.6kbits/s speed=0.0155x elapsed=0:00:41.39    \nframe=   36 fps=0.9 q=40.3 size=       0KiB time=00:00:00.66 bitrate=   0.5kbits/s speed=0.0157x elapsed=0:00:41.92    \nframe=   37 fps=0.9 q=43.8 size=       0KiB time=00:00:00.70 bitrate=   0.5kbits/s speed=0.0165x elapsed=0:00:42.47    \nframe=   37 fps=0.9 q=43.8 size=       0KiB time=00:00:00.70 bitrate=   0.5kbits/s speed=0.0163x elapsed=0:00:43.01    \nframe=   38 fps=0.9 q=45.5 size=       0KiB time=00:00:00.72 bitrate=   0.5kbits/s speed=0.0165x elapsed=0:00:43.51    \nframe=   38 fps=0.9 q=45.5 size=       0KiB time=00:00:00.72 bitrate=   0.5kbits/s speed=0.0164x elapsed=0:00:44.03    \nframe=   40 fps=0.9 q=40.5 size=       0KiB time=00:00:00.76 bitrate=   0.5kbits/s speed=0.0171x elapsed=0:00:44.56    \nframe=   41 fps=0.9 q=43.8 size=       0KiB time=00:00:00.78 bitrate=   0.5kbits/s speed=0.0173x elapsed=0:00:45.10    \nframe=   41 fps=0.9 q=43.8 size=       0KiB time=00:00:00.78 bitrate=   0.5kbits/s speed=0.0171x elapsed=0:00:45.64    \nframe=   41 fps=0.9 q=43.8 size=       0KiB time=00:00:00.78 bitrate=   0.5kbits/s speed=0.0169x elapsed=0:00:46.17    \nframe=   42 fps=0.9 q=45.6 size=       0KiB time=00:00:00.80 bitrate=   0.4kbits/s speed=0.0171x elapsed=0:00:46.68    \nframe=   42 fps=0.9 q=45.6 size=       0KiB time=00:00:00.80 bitrate=   0.4kbits/s speed=0.0169x elapsed=0:00:47.21    \nframe=   43 fps=0.9 q=44.7 size=       0KiB time=00:00:00.82 bitrate=   0.4kbits/s speed=0.0172x elapsed=0:00:47.77    \nframe=   44 fps=0.9 q=40.3 size=       0KiB time=00:00:00.84 bitrate=   0.4kbits/s speed=0.0174x elapsed=0:00:48.32    \nframe=   45 fps=0.9 q=43.5 size=       0KiB time=00:00:00.86 bitrate=   0.4kbits/s speed=0.0176x elapsed=0:00:48.84    \nframe=   46 fps=0.9 q=44.8 size=       0KiB time=00:00:00.88 bitrate=   0.4kbits/s speed=0.0178x elapsed=0:00:49.39    \nframe=   46 fps=0.9 q=44.8 size=       0KiB time=00:00:00.88 bitrate=   0.4kbits/s speed=0.0176x elapsed=0:00:49.95    \nframe=   47 fps=0.9 q=44.5 size=       0KiB time=00:00:00.90 bitrate=   0.4kbits/s speed=0.0178x elapsed=0:00:50.51    \nframe=   48 fps=0.9 q=40.3 size=       0KiB time=00:00:00.92 bitrate=   0.4kbits/s speed=0.018x elapsed=0:00:51.04    \nframe=   50 fps=1.0 q=44.7 size=       0KiB time=00:00:00.96 bitrate=   0.4kbits/s speed=0.0186x elapsed=0:00:51.58    \nframe=   50 fps=1.0 q=44.7 size=       0KiB time=00:00:00.96 bitrate=   0.4kbits/s speed=0.0184x elapsed=0:00:52.10    \nframe=   51 fps=1.0 q=44.5 size=       0KiB time=00:00:00.98 bitrate=   0.4kbits/s speed=0.0186x elapsed=0:00:52.63    \nframe=   52 fps=1.0 q=39.2 size=       0KiB time=00:00:01.00 bitrate=   0.4kbits/s speed=0.0188x elapsed=0:00:53.15    \nframe=   52 fps=1.0 q=39.2 size=       0KiB time=00:00:01.00 bitrate=   0.4kbits/s speed=0.0186x elapsed=0:00:53.67    \nframe=   53 fps=1.0 q=43.6 size=       0KiB time=00:00:01.02 bitrate=   0.3kbits/s speed=0.0188x elapsed=0:00:54.21    \nframe=   54 fps=1.0 q=44.6 size=       0KiB time=00:00:01.04 bitrate=   0.3kbits/s speed=0.019x elapsed=0:00:54.72    \nframe=   54 fps=1.0 q=44.6 size=       0KiB time=00:00:01.04 bitrate=   0.3kbits/s speed=0.0188x elapsed=0:00:55.27    \nframe=   55 fps=1.0 q=44.6 size=       0KiB time=00:00:01.06 bitrate=   0.3kbits/s speed=0.019x elapsed=0:00:55.78    \nframe=   56 fps=1.0 q=44.7 size=       0KiB time=00:00:01.08 bitrate=   0.3kbits/s speed=0.0192x elapsed=0:00:56.33    \nframe=   56 fps=1.0 q=44.7 size=       0KiB time=00:00:01.08 bitrate=   0.3kbits/s speed=0.019x elapsed=0:00:56.86    \nframe=   58 fps=1.0 q=43.0 size=       0KiB time=00:00:01.12 bitrate=   0.3kbits/s speed=0.0195x elapsed=0:00:57.37    \nframe=   58 fps=1.0 q=43.0 size=       0KiB time=00:00:01.12 bitrate=   0.3kbits/s speed=0.0193x elapsed=0:00:57.89    \nframe=   59 fps=1.0 q=45.9 size=       0KiB time=00:00:01.14 bitrate=   0.3kbits/s speed=0.0195x elapsed=0:00:58.42    \nframe=   59 fps=1.0 q=45.9 size=       0KiB time=00:00:01.14 bitrate=   0.3kbits/s speed=0.0193x elapsed=0:00:58.95    \nframe=   60 fps=1.0 q=45.0 size=       0KiB time=00:00:01.16 bitrate=   0.3kbits/s speed=0.0195x elapsed=0:00:59.47    \nframe=   60 fps=1.0 q=45.0 size=       0KiB time=00:00:01.16 bitrate=   0.3kbits/s speed=0.0193x elapsed=0:00:59.98    \nframe=   60 fps=1.0 q=45.0 size=       0KiB time=00:00:01.16 bitrate=   0.3kbits/s speed=0.0192x elapsed=0:01:00.53    \nframe=   61 fps=1.0 q=40.2 size=       0KiB time=00:00:01.18 bitrate=   0.3kbits/s speed=0.0193x elapsed=0:01:01.06    \nframe=   63 fps=1.0 q=43.7 size=       0KiB time=00:00:01.22 bitrate=   0.3kbits/s speed=0.0198x elapsed=0:01:01.59    \nframe=   63 fps=1.0 q=43.7 size=       0KiB time=00:00:01.22 bitrate=   0.3kbits/s speed=0.0196x elapsed=0:01:02.11    \nframe=   64 fps=1.0 q=43.6 size=       0KiB time=00:00:01.24 bitrate=   0.3kbits/s speed=0.0198x elapsed=0:01:02.64    \nframe=   65 fps=1.0 q=43.9 size=       0KiB time=00:00:01.26 bitrate=   0.3kbits/s speed=0.0199x elapsed=0:01:03.21    \nframe=   66 fps=1.0 q=40.4 size=       0KiB time=00:00:01.28 bitrate=   0.3kbits/s speed=0.0201x elapsed=0:01:03.74    \nframe=   67 fps=1.0 q=42.7 size=       0KiB time=00:00:01.30 bitrate=   0.3kbits/s speed=0.0202x elapsed=0:01:04.27    \nframe=   67 fps=1.0 q=42.7 size=       0KiB time=00:00:01.30 bitrate=   0.3kbits/s speed=0.0201x elapsed=0:01:04.80    \nframe=   68 fps=1.0 q=44.9 size=       0KiB time=00:00:01.32 bitrate=   0.3kbits/s speed=0.0202x elapsed=0:01:05.33    \nframe=   68 fps=1.0 q=44.9 size=       0KiB time=00:00:01.32 bitrate=   0.3kbits/s speed=0.02x elapsed=0:01:05.88    \nframe=   68 fps=1.0 q=44.9 size=       0KiB time=00:00:01.32 bitrate=   0.3kbits/s speed=0.0199x elapsed=0:01:06.43    \nframe=   69 fps=1.0 q=43.7 size=       0KiB time=00:00:01.34 bitrate=   0.3kbits/s speed=0.02x elapsed=0:01:06.94    \nframe=   70 fps=1.0 q=39.4 size=       0KiB time=00:00:01.36 bitrate=   0.3kbits/s speed=0.0202x elapsed=0:01:07.45    \nframe=   71 fps=1.0 q=42.7 size=       0KiB time=00:00:01.38 bitrate=   0.3kbits/s speed=0.0203x elapsed=0:01:07.98    \nframe=   71 fps=1.0 q=42.7 size=       0KiB time=00:00:01.38 bitrate=   0.3kbits/s speed=0.0201x elapsed=0:01:08.50    \nframe=   72 fps=1.0 q=44.6 size=       0KiB time=00:00:01.40 bitrate=   0.3kbits/s speed=0.0203x elapsed=0:01:09.01    \nframe=   72 fps=1.0 q=44.6 size=       0KiB time=00:00:01.40 bitrate=   0.3kbits/s speed=0.0201x elapsed=0:01:09.54    \nframe=   73 fps=1.0 q=44.6 size=       0KiB time=00:00:01.42 bitrate=   0.2kbits/s speed=0.0203x elapsed=0:01:10.06    \nframe=   73 fps=1.0 q=44.6 size=       0KiB time=00:00:01.42 bitrate=   0.2kbits/s speed=0.0201x elapsed=0:01:10.57    \nframe=   74 fps=1.0 q=40.1 size=       0KiB time=00:00:01.44 bitrate=   0.2kbits/s speed=0.0202x elapsed=0:01:11.11    \nframe=   74 fps=1.0 q=40.1 size=       0KiB time=00:00:01.44 bitrate=   0.2kbits/s speed=0.0201x elapsed=0:01:11.63    \nframe=   75 fps=1.0 q=42.7 size=     256KiB time=00:00:01.46 bitrate=1436.6kbits/s speed=0.0202x elapsed=0:01:12.14    \nframe=   75 fps=1.0 q=42.7 size=     256KiB time=00:00:01.46 bitrate=1436.6kbits/s speed=0.0201x elapsed=0:01:12.66    \nframe=   76 fps=1.0 q=44.7 size=     256KiB time=00:00:01.48 bitrate=1417.2kbits/s speed=0.0202x elapsed=0:01:13.17    \nframe=   76 fps=1.0 q=44.7 size=     256KiB time=00:00:01.48 bitrate=1417.2kbits/s speed=0.0201x elapsed=0:01:13.68    \nframe=   77 fps=1.0 q=44.6 size=     256KiB time=00:00:01.50 bitrate=1398.3kbits/s speed=0.0202x elapsed=0:01:14.20    \nframe=   78 fps=1.0 q=39.7 size=     256KiB time=00:00:01.52 bitrate=1379.9kbits/s speed=0.0203x elapsed=0:01:14.72    \nframe=   79 fps=1.0 q=42.5 size=     256KiB time=00:00:01.54 bitrate=1362.0kbits/s speed=0.0205x elapsed=0:01:15.27    \nframe=   80 fps=1.1 q=44.5 size=     256KiB time=00:00:01.56 bitrate=1344.6kbits/s speed=0.0206x elapsed=0:01:15.82    \nframe=   81 fps=1.1 q=44.7 size=     256KiB time=00:00:01.58 bitrate=1327.5kbits/s speed=0.0207x elapsed=0:01:16.37    \nframe=   81 fps=1.1 q=44.7 size=     256KiB time=00:00:01.58 bitrate=1327.5kbits/s speed=0.0205x elapsed=0:01:16.91    \nframe=   82 fps=1.1 q=39.7 size=     256KiB time=00:00:01.60 bitrate=1310.9kbits/s speed=0.0207x elapsed=0:01:17.47    \nframe=   83 fps=1.1 q=42.6 size=     256KiB time=00:00:01.62 bitrate=1294.8kbits/s speed=0.0208x elapsed=0:01:18.01    \nframe=   83 fps=1.1 q=42.6 size=     256KiB time=00:00:01.62 bitrate=1294.8kbits/s speed=0.0206x elapsed=0:01:18.54    \nframe=   84 fps=1.1 q=44.7 size=     256KiB time=00:00:01.64 bitrate=1279.0kbits/s speed=0.0207x elapsed=0:01:19.06    \nframe=   84 fps=1.1 q=44.7 size=     256KiB time=00:00:01.64 bitrate=1279.0kbits/s speed=0.0206x elapsed=0:01:19.60    \nframe=   84 fps=1.0 q=44.7 size=     256KiB time=00:00:01.64 bitrate=1279.0kbits/s speed=0.0205x elapsed=0:01:20.18    \nframe=   84 fps=1.0 q=44.7 size=     256KiB time=00:00:01.64 bitrate=1279.0kbits/s speed=0.0203x elapsed=0:01:20.77    \nframe=   84 fps=1.0 q=44.7 size=     256KiB time=00:00:01.64 bitrate=1279.0kbits/s speed=0.0202x elapsed=0:01:21.32    \nframe=   84 fps=1.0 q=44.7 size=     256KiB time=00:00:01.64 bitrate=1279.0kbits/s speed=0.02x elapsed=0:01:21.92    \nframe=   84 fps=1.0 q=44.7 size=     256KiB time=00:00:01.64 bitrate=1279.0kbits/s speed=0.0199x elapsed=0:01:22.59    \nframe=   84 fps=1.0 q=44.7 size=     256KiB time=00:00:01.64 bitrate=1279.0kbits/s speed=0.0197x elapsed=0:01:23.13    \nframe=   84 fps=1.0 q=44.7 size=     256KiB time=00:00:01.64 bitrate=1279.0kbits/s speed=0.0196x elapsed=0:01:23.75    \nframe=   84 fps=1.0 q=44.7 size=     256KiB time=00:00:01.64 bitrate=1279.0kbits/s speed=0.0194x elapsed=0:01:24.37    \nframe=   85 fps=1.0 q=44.5 size=     256KiB time=00:00:01.66 bitrate=1263.6kbits/s speed=0.0196x elapsed=0:01:24.89    \nframe=   85 fps=1.0 q=44.5 size=     256KiB time=00:00:01.66 bitrate=1263.6kbits/s speed=0.0194x elapsed=0:01:25.45    \nframe=   85 fps=1.0 q=44.5 size=     256KiB time=00:00:01.66 bitrate=1263.6kbits/s speed=0.0193x elapsed=0:01:26.00    \nframe=   85 fps=1.0 q=44.5 size=     256KiB time=00:00:01.66 bitrate=1263.6kbits/s speed=0.0192x elapsed=0:01:26.56    \nframe=   85 fps=1.0 q=44.5 size=     256KiB time=00:00:01.66 bitrate=1263.6kbits/s speed=0.019x elapsed=0:01:27.15    \nframe=   85 fps=1.0 q=44.5 size=     256KiB time=00:00:01.66 bitrate=1263.6kbits/s speed=0.0189x elapsed=0:01:27.68    \nframe=   86 fps=1.0 q=39.6 size=     256KiB time=00:00:01.68 bitrate=1248.5kbits/s speed=0.019x elapsed=0:01:28.21    \nframe=   86 fps=1.0 q=39.6 size=     256KiB time=00:00:01.68 bitrate=1248.5kbits/s speed=0.0189x elapsed=0:01:28.79    \nframe=   86 fps=1.0 q=39.6 size=     256KiB time=00:00:01.68 bitrate=1248.5kbits/s speed=0.0188x elapsed=0:01:29.36    \nframe=   86 fps=1.0 q=39.6 size=     256KiB time=00:00:01.68 bitrate=1248.5kbits/s speed=0.0187x elapsed=0:01:30.00    \nframe=   87 fps=1.0 q=42.8 size=     256KiB time=00:00:01.70 bitrate=1233.8kbits/s speed=0.0188x elapsed=0:01:30.55    \nframe=   87 fps=1.0 q=42.8 size=     256KiB time=00:00:01.70 bitrate=1233.8kbits/s speed=0.0187x elapsed=0:01:31.07    \nframe=   87 fps=0.9 q=42.8 size=     256KiB time=00:00:01.70 bitrate=1233.8kbits/s speed=0.0186x elapsed=0:01:31.60    \nframe=   88 fps=1.0 q=44.7 size=     256KiB time=00:00:01.72 bitrate=1219.5kbits/s speed=0.0187x elapsed=0:01:32.12    \nframe=   88 fps=0.9 q=44.7 size=     256KiB time=00:00:01.72 bitrate=1219.5kbits/s speed=0.0186x elapsed=0:01:32.68    \nframe=   89 fps=1.0 q=44.7 size=     256KiB time=00:00:01.74 bitrate=1205.5kbits/s speed=0.0187x elapsed=0:01:33.21    \nframe=   89 fps=0.9 q=44.7 size=     256KiB time=00:00:01.74 bitrate=1205.5kbits/s speed=0.0186x elapsed=0:01:33.76    \nframe=   89 fps=0.9 q=44.7 size=     256KiB time=00:00:01.74 bitrate=1205.5kbits/s speed=0.0185x elapsed=0:01:34.28    \nframe=   90 fps=0.9 q=39.7 size=     256KiB time=00:00:01.76 bitrate=1191.8kbits/s speed=0.0186x elapsed=0:01:34.82    \nframe=   91 fps=1.0 q=42.8 size=     256KiB time=00:00:01.78 bitrate=1178.4kbits/s speed=0.0187x elapsed=0:01:35.35    \nframe=   91 fps=0.9 q=42.8 size=     256KiB time=00:00:01.78 bitrate=1178.4kbits/s speed=0.0186x elapsed=0:01:35.89    \nframe=   92 fps=1.0 q=44.7 size=     256KiB time=00:00:01.80 bitrate=1165.3kbits/s speed=0.0187x elapsed=0:01:36.44    \nframe=   92 fps=0.9 q=44.7 size=     256KiB time=00:00:01.80 bitrate=1165.3kbits/s speed=0.0186x elapsed=0:01:36.97    \nframe=   93 fps=1.0 q=44.7 size=     256KiB time=00:00:01.82 bitrate=1152.5kbits/s speed=0.0187x elapsed=0:01:37.51    \nframe=   94 fps=1.0 q=39.8 size=     256KiB time=00:00:01.84 bitrate=1139.9kbits/s speed=0.0188x elapsed=0:01:38.03    \nframe=   95 fps=1.0 q=42.8 size=     256KiB time=00:00:01.86 bitrate=1127.7kbits/s speed=0.0189x elapsed=0:01:38.55    \nframe=   95 fps=1.0 q=42.8 size=     256KiB time=00:00:01.86 bitrate=1127.7kbits/s speed=0.0188x elapsed=0:01:39.06    \nframe=   95 fps=1.0 q=42.8 size=     256KiB time=00:00:01.86 bitrate=1127.7kbits/s speed=0.0187x elapsed=0:01:39.58    \nframe=   96 fps=1.0 q=44.7 size=     256KiB time=00:00:01.88 bitrate=1115.7kbits/s speed=0.0188x elapsed=0:01:40.11    \nframe=   96 fps=1.0 q=44.7 size=     256KiB time=00:00:01.88 bitrate=1115.7kbits/s speed=0.0187x elapsed=0:01:40.63    \nframe=   97 fps=1.0 q=44.6 size=     256KiB time=00:00:01.90 bitrate=1103.9kbits/s speed=0.0188x elapsed=0:01:41.17    \nframe=   97 fps=1.0 q=44.6 size=     256KiB time=00:00:01.90 bitrate=1103.9kbits/s speed=0.0187x elapsed=0:01:41.71    \nframe=   99 fps=1.0 q=42.7 size=     256KiB time=00:00:01.94 bitrate=1081.2kbits/s speed=0.019x elapsed=0:01:42.23    \nframe=   99 fps=1.0 q=42.7 size=     256KiB time=00:00:01.94 bitrate=1081.2kbits/s speed=0.0189x elapsed=0:01:42.76    \nframe=   99 fps=1.0 q=42.7 size=     256KiB time=00:00:01.94 bitrate=1081.2kbits/s speed=0.0188x elapsed=0:01:43.29    \nframe=  100 fps=1.0 q=44.6 size=     256KiB time=00:00:01.96 bitrate=1070.2kbits/s speed=0.0189x elapsed=0:01:43.84    \nframe=  101 fps=1.0 q=44.8 size=     256KiB time=00:00:01.98 bitrate=1059.3kbits/s speed=0.019x elapsed=0:01:44.36    \nframe=  101 fps=1.0 q=44.8 size=     256KiB time=00:00:01.98 bitrate=1059.3kbits/s speed=0.0189x elapsed=0:01:44.88    \nframe=  102 fps=1.0 q=39.3 size=     256KiB time=00:00:02.00 bitrate=1048.8kbits/s speed=0.019x elapsed=0:01:45.41    \nframe=  102 fps=1.0 q=39.3 size=     256KiB time=00:00:02.00 bitrate=1048.8kbits/s speed=0.0189x elapsed=0:01:45.94    \nframe=  103 fps=1.0 q=43.3 size=     256KiB time=00:00:02.02 bitrate=1038.4kbits/s speed=0.019x elapsed=0:01:46.47    \nframe=  103 fps=1.0 q=43.3 size=     256KiB time=00:00:02.02 bitrate=1038.4kbits/s speed=0.0189x elapsed=0:01:47.01    \nframe=  104 fps=1.0 q=44.3 size=     256KiB time=00:00:02.04 bitrate=1028.2kbits/s speed=0.019x elapsed=0:01:47.53    \nframe=  105 fps=1.0 q=44.3 size=     256KiB time=00:00:02.06 bitrate=1018.2kbits/s speed=0.0191x elapsed=0:01:48.09    \nframe=  105 fps=1.0 q=44.3 size=     256KiB time=00:00:02.06 bitrate=1018.2kbits/s speed=0.019x elapsed=0:01:48.62    \nframe=  106 fps=1.0 q=44.6 size=     256KiB time=00:00:02.08 bitrate=1008.4kbits/s speed=0.0191x elapsed=0:01:49.13    \nframe=  106 fps=1.0 q=44.6 size=     256KiB time=00:00:02.08 bitrate=1008.4kbits/s speed=0.019x elapsed=0:01:49.64    \nframe=  107 fps=1.0 q=39.7 size=     256KiB time=00:00:02.10 bitrate= 998.8kbits/s speed=0.0191x elapsed=0:01:50.15    \nframe=  107 fps=1.0 q=39.7 size=     256KiB time=00:00:02.10 bitrate= 998.8kbits/s speed=0.019x elapsed=0:01:50.68    \nframe=  107 fps=1.0 q=39.7 size=     256KiB time=00:00:02.10 bitrate= 998.8kbits/s speed=0.0189x elapsed=0:01:51.26    \nframe=  109 fps=1.0 q=45.3 size=     256KiB time=00:00:02.14 bitrate= 980.1kbits/s speed=0.0191x elapsed=0:01:51.79    \nframe=  109 fps=1.0 q=45.3 size=     256KiB time=00:00:02.14 bitrate= 980.1kbits/s speed=0.0191x elapsed=0:01:52.31    \nframe=  110 fps=1.0 q=44.7 size=     256KiB time=00:00:02.16 bitrate= 971.1kbits/s speed=0.0191x elapsed=0:01:52.83    \nframe=  112 fps=1.0 q=39.4 size=     256KiB time=00:00:02.20 bitrate= 953.4kbits/s speed=0.0194x elapsed=0:01:53.36    \nframe=  112 fps=1.0 q=39.4 size=     256KiB time=00:00:02.20 bitrate= 953.4kbits/s speed=0.0193x elapsed=0:01:53.90    \nframe=  113 fps=1.0 q=43.0 size=     256KiB time=00:00:02.22 bitrate= 944.8kbits/s speed=0.0194x elapsed=0:01:54.41    \nframe=  113 fps=1.0 q=43.0 size=     256KiB time=00:00:02.22 bitrate= 944.8kbits/s speed=0.0193x elapsed=0:01:54.93    \nframe=  114 fps=1.0 q=44.8 size=     256KiB time=00:00:02.24 bitrate= 936.4kbits/s speed=0.0194x elapsed=0:01:55.45    \nframe=  114 fps=1.0 q=44.8 size=     256KiB time=00:00:02.24 bitrate= 936.4kbits/s speed=0.0193x elapsed=0:01:55.98    \nframe=  116 fps=1.0 q=39.3 size=     256KiB time=00:00:02.26 bitrate= 928.1kbits/s speed=0.0194x elapsed=0:01:56.52    \nframe=  117 fps=1.0 q=42.3 size=     256KiB time=00:00:02.30 bitrate= 912.0kbits/s speed=0.0196x elapsed=0:01:57.07    \nframe=  118 fps=1.0 q=44.8 size=     256KiB time=00:00:02.32 bitrate= 904.1kbits/s speed=0.0197x elapsed=0:01:57.68    \nframe=  119 fps=1.0 q=44.5 size=     256KiB time=00:00:02.32 bitrate= 904.1kbits/s speed=0.0196x elapsed=0:01:58.23    \nframe=  119 fps=1.0 q=44.5 size=     256KiB time=00:00:02.34 bitrate= 896.4kbits/s speed=0.0197x elapsed=0:01:58.84    \nframe=  120 fps=1.0 q=43.8 size=     256KiB time=00:00:02.36 bitrate= 888.8kbits/s speed=0.0198x elapsed=0:01:59.43    \nframe=  120 fps=1.0 q=43.8 size=     256KiB time=00:00:02.36 bitrate= 888.8kbits/s speed=0.0197x elapsed=0:01:59.97    \nframe=  120 fps=1.0 q=43.8 size=     256KiB time=00:00:02.36 bitrate= 888.8kbits/s speed=0.0196x elapsed=0:02:00.54    \nframe=  121 fps=1.0 q=39.2 size=     256KiB time=00:00:02.38 bitrate= 881.3kbits/s speed=0.0197x elapsed=0:02:01.08    \nframe=  121 fps=1.0 q=39.2 size=     256KiB time=00:00:02.38 bitrate= 881.3kbits/s speed=0.0196x elapsed=0:02:01.66    \nframe=  123 fps=1.0 q=44.9 size=     256KiB time=00:00:02.42 bitrate= 866.7kbits/s speed=0.0198x elapsed=0:02:02.19    \nframe=  123 fps=1.0 q=44.9 size=     256KiB time=00:00:02.42 bitrate= 866.7kbits/s speed=0.0197x elapsed=0:02:02.74    \nframe=  123 fps=1.0 q=44.9 size=     256KiB time=00:00:02.42 bitrate= 866.7kbits/s speed=0.0196x elapsed=0:02:03.28    \nframe=  123 fps=1.0 q=44.9 size=     256KiB time=00:00:02.42 bitrate= 866.7kbits/s speed=0.0195x elapsed=0:02:03.84    \nframe=  123 fps=1.0 q=44.9 size=     256KiB time=00:00:02.42 bitrate= 866.7kbits/s speed=0.0195x elapsed=0:02:04.36    \nframe=  124 fps=1.0 q=43.9 size=     256KiB time=00:00:02.44 bitrate= 859.6kbits/s speed=0.0195x elapsed=0:02:04.90    \nframe=  124 fps=1.0 q=43.9 size=     256KiB time=00:00:02.44 bitrate= 859.6kbits/s speed=0.0194x elapsed=0:02:05.45    \nframe=  124 fps=1.0 q=43.9 size=     256KiB time=00:00:02.44 bitrate= 859.6kbits/s speed=0.0194x elapsed=0:02:06.00    \nframe=  124 fps=1.0 q=43.9 size=     256KiB time=00:00:02.44 bitrate= 859.6kbits/s speed=0.0193x elapsed=0:02:06.55    \nframe=  124 fps=1.0 q=43.9 size=     256KiB time=00:00:02.44 bitrate= 859.6kbits/s speed=0.0192x elapsed=0:02:07.08    \nframe=  125 fps=1.0 q=38.8 size=     256KiB time=00:00:02.46 bitrate= 852.6kbits/s speed=0.0193x elapsed=0:02:07.63    \nframe=  126 fps=1.0 q=41.9 size=     256KiB time=00:00:02.48 bitrate= 845.8kbits/s speed=0.0193x elapsed=0:02:08.16    \nframe=  126 fps=1.0 q=41.9 size=     256KiB time=00:00:02.48 bitrate= 845.8kbits/s speed=0.0193x elapsed=0:02:08.74    \nframe=  127 fps=1.0 q=44.7 size=     256KiB time=00:00:02.50 bitrate= 839.0kbits/s speed=0.0193x elapsed=0:02:09.34    \nframe=  127 fps=1.0 q=44.7 size=     256KiB time=00:00:02.50 bitrate= 839.0kbits/s speed=0.0192x elapsed=0:02:10.01    \nframe=  127 fps=1.0 q=44.7 size=     256KiB time=00:00:02.50 bitrate= 839.0kbits/s speed=0.0191x elapsed=0:02:10.57    \nframe=  128 fps=1.0 q=43.8 size=     256KiB time=00:00:02.50 bitrate= 839.0kbits/s speed=0.0191x elapsed=0:02:11.12    \nframe=  128 fps=1.0 q=43.8 size=     256KiB time=00:00:02.52 bitrate= 832.3kbits/s speed=0.0191x elapsed=0:02:11.70    \nframe=  128 fps=1.0 q=43.8 size=     256KiB time=00:00:02.52 bitrate= 832.3kbits/s speed=0.019x elapsed=0:02:12.34    \nframe=  128 fps=1.0 q=43.8 size=     256KiB time=00:00:02.52 bitrate= 832.3kbits/s speed=0.019x elapsed=0:02:12.96    \nframe=  128 fps=1.0 q=43.8 size=     256KiB time=00:00:02.52 bitrate= 832.3kbits/s speed=0.0189x elapsed=0:02:13.50    \nframe=  129 fps=1.0 q=39.2 size=     256KiB time=00:00:02.54 bitrate= 825.8kbits/s speed=0.0189x elapsed=0:02:14.10    \nframe=  129 fps=1.0 q=39.2 size=     256KiB time=00:00:02.54 bitrate= 825.8kbits/s speed=0.0188x elapsed=0:02:14.75    \nframe=  129 fps=1.0 q=39.2 size=     256KiB time=00:00:02.54 bitrate= 825.8kbits/s speed=0.0188x elapsed=0:02:15.37    \nframe=  130 fps=1.0 q=42.1 size=     256KiB time=00:00:02.56 bitrate= 819.3kbits/s speed=0.0188x elapsed=0:02:16.00    \nframe=  130 fps=1.0 q=42.1 size=     256KiB time=00:00:02.56 bitrate= 819.3kbits/s speed=0.0187x elapsed=0:02:16.61    \nframe=  130 fps=0.9 q=42.1 size=     256KiB time=00:00:02.56 bitrate= 819.3kbits/s speed=0.0187x elapsed=0:02:17.15    \nframe=  130 fps=0.9 q=42.1 size=     256KiB time=00:00:02.56 bitrate= 819.3kbits/s speed=0.0186x elapsed=0:02:17.78    \nframe=  131 fps=0.9 q=44.5 size=     256KiB time=00:00:02.58 bitrate= 813.0kbits/s speed=0.0187x elapsed=0:02:18.32    \nframe=  131 fps=0.9 q=44.5 size=     256KiB time=00:00:02.58 bitrate= 813.0kbits/s speed=0.0186x elapsed=0:02:18.86    \nframe=  131 fps=0.9 q=44.5 size=     256KiB time=00:00:02.58 bitrate= 813.0kbits/s speed=0.0185x elapsed=0:02:19.40    \nframe=  131 fps=0.9 q=44.5 size=     256KiB time=00:00:02.58 bitrate= 813.0kbits/s speed=0.0184x elapsed=0:02:19.97    \nframe=  132 fps=0.9 q=43.8 size=     256KiB time=00:00:02.60 bitrate= 806.7kbits/s speed=0.0185x elapsed=0:02:20.52    \nframe=  132 fps=0.9 q=43.8 size=     256KiB time=00:00:02.60 bitrate= 806.7kbits/s speed=0.0184x elapsed=0:02:21.18    \nframe=  132 fps=0.9 q=43.8 size=     256KiB time=00:00:02.60 bitrate= 806.7kbits/s speed=0.0183x elapsed=0:02:21.78    \nframe=  132 fps=0.9 q=43.8 size=     256KiB time=00:00:02.60 bitrate= 806.7kbits/s speed=0.0183x elapsed=0:02:22.37    \nframe=  132 fps=0.9 q=43.8 size=     256KiB time=00:00:02.60 bitrate= 806.7kbits/s speed=0.0182x elapsed=0:02:22.93    \nframe=  132 fps=0.9 q=43.8 size=     256KiB time=00:00:02.60 bitrate= 806.7kbits/s speed=0.0181x elapsed=0:02:23.52    \nframe=  132 fps=0.9 q=43.8 size=     256KiB time=00:00:02.60 bitrate= 806.7kbits/s speed=0.018x elapsed=0:02:24.06    \nframe=  132 fps=0.9 q=43.8 size=     256KiB time=00:00:02.60 bitrate= 806.7kbits/s speed=0.018x elapsed=0:02:24.59    \nframe=  132 fps=0.9 q=43.8 size=     256KiB time=00:00:02.60 bitrate= 806.7kbits/s speed=0.0179x elapsed=0:02:25.14    \nframe=  132 fps=0.9 q=43.8 size=     256KiB time=00:00:02.60 bitrate= 806.7kbits/s speed=0.0178x elapsed=0:02:25.72    \nframe=  134 fps=0.9 q=41.9 size=     256KiB time=00:00:02.64 bitrate= 794.5kbits/s speed=0.018x elapsed=0:02:26.29    \nframe=  135 fps=0.9 q=44.5 size=     256KiB time=00:00:02.66 bitrate= 788.5kbits/s speed=0.0181x elapsed=0:02:26.82    \nframe=  135 fps=0.9 q=44.5 size=     256KiB time=00:00:02.66 bitrate= 788.5kbits/s speed=0.0181x elapsed=0:02:27.33    \nframe=  135 fps=0.9 q=44.5 size=     256KiB time=00:00:02.66 bitrate= 788.5kbits/s speed=0.018x elapsed=0:02:27.85    \nframe=  137 fps=0.9 q=38.7 size=     256KiB time=00:00:02.70 bitrate= 776.9kbits/s speed=0.0182x elapsed=0:02:28.37    \nframe=  137 fps=0.9 q=38.7 size=     256KiB time=00:00:02.70 bitrate= 776.9kbits/s speed=0.0181x elapsed=0:02:28.89    \nframe=  137 fps=0.9 q=38.7 size=     256KiB time=00:00:02.70 bitrate= 776.9kbits/s speed=0.0181x elapsed=0:02:29.41    \nframe=  137 fps=0.9 q=38.7 size=     256KiB time=00:00:02.70 bitrate= 776.9kbits/s speed=0.018x elapsed=0:02:29.96    \nframe=  138 fps=0.9 q=42.4 size=     256KiB time=00:00:02.72 bitrate= 771.1kbits/s speed=0.0181x elapsed=0:02:30.53    \nframe=  139 fps=0.9 q=43.6 size=     256KiB time=00:00:02.74 bitrate= 765.5kbits/s speed=0.0181x elapsed=0:02:31.08    \nframe=  139 fps=0.9 q=43.6 size=     256KiB time=00:00:02.74 bitrate= 765.5kbits/s speed=0.0181x elapsed=0:02:31.62    \nframe=  140 fps=0.9 q=43.8 size=     256KiB time=00:00:02.76 bitrate= 760.0kbits/s speed=0.0181x elapsed=0:02:32.15    \nframe=  141 fps=0.9 q=43.6 size=     256KiB time=00:00:02.78 bitrate= 754.5kbits/s speed=0.0182x elapsed=0:02:32.67    \nframe=  141 fps=0.9 q=43.6 size=     256KiB time=00:00:02.78 bitrate= 754.5kbits/s speed=0.0181x elapsed=0:02:33.19    \nframe=  142 fps=0.9 q=39.4 size=     256KiB time=00:00:02.80 bitrate= 749.1kbits/s speed=0.0182x elapsed=0:02:33.71    \nframe=  142 fps=0.9 q=39.4 size=     256KiB time=00:00:02.80 bitrate= 749.1kbits/s speed=0.0182x elapsed=0:02:34.24    \nframe=  143 fps=0.9 q=40.2 size=     256KiB time=00:00:02.82 bitrate= 743.8kbits/s speed=0.0182x elapsed=0:02:34.76    \nframe=  143 fps=0.9 q=40.2 size=     256KiB time=00:00:02.82 bitrate= 743.8kbits/s speed=0.0182x elapsed=0:02:35.28    \nframe=  145 fps=0.9 q=43.7 size=     512KiB time=00:00:02.86 bitrate=1466.7kbits/s speed=0.0184x elapsed=0:02:35.81    \nframe=  145 fps=0.9 q=43.7 size=     512KiB time=00:00:02.86 bitrate=1466.7kbits/s speed=0.0183x elapsed=0:02:36.36    \nframe=  146 fps=0.9 q=43.7 size=     512KiB time=00:00:02.88 bitrate=1456.5kbits/s speed=0.0184x elapsed=0:02:36.91    \nframe=  147 fps=0.9 q=39.6 size=     512KiB time=00:00:02.90 bitrate=1446.4kbits/s speed=0.0184x elapsed=0:02:37.44    \nframe=  149 fps=0.9 q=44.7 size=     512KiB time=00:00:02.94 bitrate=1426.8kbits/s speed=0.0186x elapsed=0:02:37.96    \nframe=  149 fps=0.9 q=44.7 size=     512KiB time=00:00:02.94 bitrate=1426.8kbits/s speed=0.0185x elapsed=0:02:38.50    \nframe=  149 fps=0.9 q=44.7 size=     512KiB time=00:00:02.94 bitrate=1426.8kbits/s speed=0.0185x elapsed=0:02:39.04    \nframe=  151 fps=0.9 q=44.4 size=     512KiB time=00:00:02.98 bitrate=1407.6kbits/s speed=0.0187x elapsed=0:02:39.58    \nframe=  152 fps=0.9 q=39.3 size=     512KiB time=00:00:03.00 bitrate=1398.2kbits/s speed=0.0187x elapsed=0:02:40.10    \nframe=  152 fps=0.9 q=39.3 size=     512KiB time=00:00:03.00 bitrate=1398.2kbits/s speed=0.0187x elapsed=0:02:40.63    \nframe=  152 fps=0.9 q=39.3 size=     512KiB time=00:00:03.00 bitrate=1398.2kbits/s speed=0.0186x elapsed=0:02:41.16    \nframe=  153 fps=0.9 q=42.4 size=     512KiB time=00:00:03.02 bitrate=1389.0kbits/s speed=0.0187x elapsed=0:02:41.71    \nframe=  154 fps=0.9 q=44.4 size=     512KiB time=00:00:03.04 bitrate=1379.8kbits/s speed=0.0187x elapsed=0:02:42.26    \nframe=  154 fps=0.9 q=44.4 size=     512KiB time=00:00:03.04 bitrate=1379.8kbits/s speed=0.0187x elapsed=0:02:42.80    \nframe=  154 fps=0.9 q=44.4 size=     512KiB time=00:00:03.04 bitrate=1379.8kbits/s speed=0.0186x elapsed=0:02:43.33    \nframe=  155 fps=0.9 q=43.7 size=     512KiB time=00:00:03.06 bitrate=1370.8kbits/s speed=0.0187x elapsed=0:02:43.86    \nframe=  155 fps=0.9 q=43.7 size=     512KiB time=00:00:03.06 bitrate=1370.8kbits/s speed=0.0186x elapsed=0:02:44.40    \nframe=  155 fps=0.9 q=43.7 size=     512KiB time=00:00:03.06 bitrate=1370.8kbits/s speed=0.0186x elapsed=0:02:44.92    \nframe=  155 fps=0.9 q=43.7 size=     512KiB time=00:00:03.06 bitrate=1370.8kbits/s speed=0.0185x elapsed=0:02:45.44    \nframe=  156 fps=0.9 q=38.4 size=     512KiB time=00:00:03.08 bitrate=1361.9kbits/s speed=0.0186x elapsed=0:02:45.96    \nframe=  156 fps=0.9 q=38.4 size=     512KiB time=00:00:03.08 bitrate=1361.9kbits/s speed=0.0185x elapsed=0:02:46.47    \nframe=  157 fps=0.9 q=41.2 size=     512KiB time=00:00:03.10 bitrate=1353.1kbits/s speed=0.0186x elapsed=0:02:47.03    \nframe=  158 fps=0.9 q=43.4 size=     512KiB time=00:00:03.12 bitrate=1344.4kbits/s speed=0.0186x elapsed=0:02:47.59    \nframe=  158 fps=0.9 q=43.4 size=     512KiB time=00:00:03.12 bitrate=1344.4kbits/s speed=0.0186x elapsed=0:02:48.11    \nframe=  159 fps=0.9 q=43.4 size=     512KiB time=00:00:03.14 bitrate=1335.9kbits/s speed=0.0186x elapsed=0:02:48.64    \nframe=  160 fps=0.9 q=43.7 size=     512KiB time=00:00:03.16 bitrate=1327.4kbits/s speed=0.0187x elapsed=0:02:49.17    \nframe=  161 fps=0.9 q=39.0 size=     512KiB time=00:00:03.18 bitrate=1319.1kbits/s speed=0.0187x elapsed=0:02:49.69    \nframe=  162 fps=1.0 q=39.7 size=     512KiB time=00:00:03.20 bitrate=1310.8kbits/s speed=0.0188x elapsed=0:02:50.22    \nframe=  164 fps=1.0 q=43.7 size=     512KiB time=00:00:03.24 bitrate=1294.6kbits/s speed=0.019x elapsed=0:02:50.77    \nframe=  164 fps=1.0 q=43.7 size=     512KiB time=00:00:03.24 bitrate=1294.6kbits/s speed=0.0189x elapsed=0:02:51.33    \nframe=  165 fps=1.0 q=43.8 size=     512KiB time=00:00:03.26 bitrate=1286.7kbits/s speed=0.019x elapsed=0:02:51.86    \nframe=  165 fps=1.0 q=43.8 size=     512KiB time=00:00:03.26 bitrate=1286.7kbits/s speed=0.0189x elapsed=0:02:52.37    \nframe=  165 fps=1.0 q=43.8 size=     512KiB time=00:00:03.26 bitrate=1286.7kbits/s speed=0.0189x elapsed=0:02:52.89    \nframe=  166 fps=1.0 q=38.7 size=     512KiB time=00:00:03.28 bitrate=1278.9kbits/s speed=0.0189x elapsed=0:02:53.44    \nframe=  167 fps=1.0 q=42.9 size=     512KiB time=00:00:03.30 bitrate=1271.1kbits/s speed=0.019x elapsed=0:02:53.96    \nframe=  168 fps=1.0 q=44.4 size=     512KiB time=00:00:03.32 bitrate=1263.5kbits/s speed=0.019x elapsed=0:02:54.49    \nframe=  169 fps=1.0 q=43.7 size=     512KiB time=00:00:03.34 bitrate=1255.9kbits/s speed=0.0191x elapsed=0:02:55.02    \nframe=  169 fps=1.0 q=43.7 size=     512KiB time=00:00:03.34 bitrate=1255.9kbits/s speed=0.019x elapsed=0:02:55.54    \nframe=  170 fps=1.0 q=43.7 size=     512KiB time=00:00:03.36 bitrate=1248.4kbits/s speed=0.0191x elapsed=0:02:56.07    \nframe=  170 fps=1.0 q=43.7 size=     512KiB time=00:00:03.36 bitrate=1248.4kbits/s speed=0.019x elapsed=0:02:56.58    \nframe=  170 fps=1.0 q=43.7 size=     512KiB time=00:00:03.36 bitrate=1248.4kbits/s speed=0.019x elapsed=0:02:57.09    \nframe=  171 fps=1.0 q=39.1 size=     512KiB time=00:00:03.38 bitrate=1241.0kbits/s speed=0.019x elapsed=0:02:57.61    \nframe=  173 fps=1.0 q=43.6 size=     512KiB time=00:00:03.42 bitrate=1226.5kbits/s speed=0.0192x elapsed=0:02:58.12    \nframe=  173 fps=1.0 q=43.6 size=     512KiB time=00:00:03.42 bitrate=1226.5kbits/s speed=0.0191x elapsed=0:02:58.64    \nframe=  174 fps=1.0 q=42.9 size=     512KiB time=00:00:03.44 bitrate=1219.4kbits/s speed=0.0192x elapsed=0:02:59.16    \nframe=  174 fps=1.0 q=42.9 size=     512KiB time=00:00:03.44 bitrate=1219.4kbits/s speed=0.0191x elapsed=0:02:59.68    \nframe=  175 fps=1.0 q=42.8 size=     512KiB time=00:00:03.46 bitrate=1212.3kbits/s speed=0.0192x elapsed=0:03:00.21    \nframe=  176 fps=1.0 q=38.6 size=     512KiB time=00:00:03.48 bitrate=1205.4kbits/s speed=0.0193x elapsed=0:03:00.72    \nframe=  176 fps=1.0 q=38.6 size=     512KiB time=00:00:03.48 bitrate=1205.4kbits/s speed=0.0192x elapsed=0:03:01.24    \nframe=  176 fps=1.0 q=38.6 size=     512KiB time=00:00:03.48 bitrate=1205.4kbits/s speed=0.0191x elapsed=0:03:01.75    \nframe=  177 fps=1.0 q=42.3 size=     512KiB time=00:00:03.50 bitrate=1198.5kbits/s speed=0.0192x elapsed=0:03:02.27    \nframe=  177 fps=1.0 q=42.3 size=     512KiB time=00:00:03.50 bitrate=1198.5kbits/s speed=0.0191x elapsed=0:03:02.78    \nframe=  178 fps=1.0 q=42.7 size=     512KiB time=00:00:03.52 bitrate=1191.7kbits/s speed=0.0192x elapsed=0:03:03.30    \nframe=  179 fps=1.0 q=42.8 size=     512KiB time=00:00:03.54 bitrate=1184.9kbits/s speed=0.0193x elapsed=0:03:03.81    \nframe=  180 fps=1.0 q=42.6 size=     512KiB time=00:00:03.56 bitrate=1178.3kbits/s speed=0.0193x elapsed=0:03:04.33    \nframe=  180 fps=1.0 q=42.6 size=     512KiB time=00:00:03.56 bitrate=1178.3kbits/s speed=0.0193x elapsed=0:03:04.84    \nframe=  180 fps=1.0 q=42.6 size=     512KiB time=00:00:03.56 bitrate=1178.3kbits/s speed=0.0192x elapsed=0:03:05.35    \nframe=  181 fps=1.0 q=38.3 size=     512KiB time=00:00:03.58 bitrate=1171.7kbits/s speed=0.0193x elapsed=0:03:05.87    \nframe=  182 fps=1.0 q=42.0 size=     512KiB time=00:00:03.60 bitrate=1165.2kbits/s speed=0.0193x elapsed=0:03:06.40    \nframe=  182 fps=1.0 q=42.0 size=     512KiB time=00:00:03.60 bitrate=1165.2kbits/s speed=0.0193x elapsed=0:03:06.93    \nframe=  184 fps=1.0 q=42.8 size=     512KiB time=00:00:03.64 bitrate=1152.4kbits/s speed=0.0194x elapsed=0:03:07.44    \nframe=  185 fps=1.0 q=42.7 size=     512KiB time=00:00:03.66 bitrate=1146.1kbits/s speed=0.0195x elapsed=0:03:07.96    \nframe=  185 fps=1.0 q=42.7 size=     512KiB time=00:00:03.66 bitrate=1146.1kbits/s speed=0.0194x elapsed=0:03:08.48    \nframe=  185 fps=1.0 q=42.7 size=     512KiB time=00:00:03.66 bitrate=1146.1kbits/s speed=0.0194x elapsed=0:03:09.01    \nframe=  186 fps=1.0 q=38.9 size=     512KiB time=00:00:03.68 bitrate=1139.9kbits/s speed=0.0194x elapsed=0:03:09.54    \nframe=  186 fps=1.0 q=38.9 size=     512KiB time=00:00:03.68 bitrate=1139.9kbits/s speed=0.0194x elapsed=0:03:10.06    \nframe=  187 fps=1.0 q=41.3 size=     512KiB time=00:00:03.70 bitrate=1133.7kbits/s speed=0.0194x elapsed=0:03:10.59    \nframe=  187 fps=1.0 q=41.3 size=     512KiB time=00:00:03.70 bitrate=1133.7kbits/s speed=0.0194x elapsed=0:03:11.11    \nframe=  188 fps=1.0 q=43.7 size=     512KiB time=00:00:03.72 bitrate=1127.6kbits/s speed=0.0194x elapsed=0:03:11.63    \nframe=  189 fps=1.0 q=43.6 size=     512KiB time=00:00:03.74 bitrate=1121.6kbits/s speed=0.0195x elapsed=0:03:12.15    \nframe=  190 fps=1.0 q=38.8 size=     512KiB time=00:00:03.76 bitrate=1115.6kbits/s speed=0.0195x elapsed=0:03:12.68    \nframe=  192 fps=1.0 q=43.3 size=     512KiB time=00:00:03.80 bitrate=1103.9kbits/s speed=0.0197x elapsed=0:03:13.21    \nframe=  192 fps=1.0 q=43.3 size=     512KiB time=00:00:03.80 bitrate=1103.9kbits/s speed=0.0196x elapsed=0:03:13.75    \nframe=  192 fps=1.0 q=43.3 size=     512KiB time=00:00:03.80 bitrate=1103.9kbits/s speed=0.0196x elapsed=0:03:14.28    \nframe=  193 fps=1.0 q=42.8 size=     512KiB time=00:00:03.82 bitrate=1098.1kbits/s speed=0.0196x elapsed=0:03:14.81    \nframe=  193 fps=1.0 q=42.8 size=     512KiB time=00:00:03.82 bitrate=1098.1kbits/s speed=0.0196x elapsed=0:03:15.33    \nframe=  195 fps=1.0 q=39.1 size=     512KiB time=00:00:03.86 bitrate=1086.7kbits/s speed=0.0197x elapsed=0:03:15.84    \nframe=  195 fps=1.0 q=39.1 size=     512KiB time=00:00:03.86 bitrate=1086.7kbits/s speed=0.0197x elapsed=0:03:16.38    \nframe=  195 fps=1.0 q=39.1 size=     512KiB time=00:00:03.86 bitrate=1086.7kbits/s speed=0.0196x elapsed=0:03:16.89    \nframe=  196 fps=1.0 q=39.2 size=     512KiB time=00:00:03.88 bitrate=1081.1kbits/s speed=0.0197x elapsed=0:03:17.43    \nframe=  197 fps=1.0 q=44.1 size=     512KiB time=00:00:03.90 bitrate=1075.6kbits/s speed=0.0197x elapsed=0:03:17.95    \nframe=  197 fps=1.0 q=44.1 size=     512KiB time=00:00:03.90 bitrate=1075.6kbits/s speed=0.0196x elapsed=0:03:18.47    \nframe=  197 fps=1.0 q=44.1 size=     512KiB time=00:00:03.90 bitrate=1075.6kbits/s speed=0.0196x elapsed=0:03:19.02    \nframe=  197 fps=1.0 q=44.1 size=     512KiB time=00:00:03.90 bitrate=1075.6kbits/s speed=0.0195x elapsed=0:03:19.57    \nframe=  197 fps=1.0 q=44.1 size=     512KiB time=00:00:03.90 bitrate=1075.6kbits/s speed=0.0195x elapsed=0:03:20.16    \nframe=  198 fps=1.0 q=43.4 size=     512KiB time=00:00:03.92 bitrate=1070.1kbits/s speed=0.0195x elapsed=0:03:20.69    \nframe=  198 fps=1.0 q=43.4 size=     512KiB time=00:00:03.92 bitrate=1070.1kbits/s speed=0.0195x elapsed=0:03:21.28    \nframe=  198 fps=1.0 q=43.4 size=     512KiB time=00:00:03.92 bitrate=1070.1kbits/s speed=0.0194x elapsed=0:03:21.81    \nframe=  198 fps=1.0 q=43.4 size=     512KiB time=00:00:03.92 bitrate=1070.1kbits/s speed=0.0194x elapsed=0:03:22.39    \nframe=  198 fps=1.0 q=43.4 size=     512KiB time=00:00:03.92 bitrate=1070.1kbits/s speed=0.0193x elapsed=0:03:22.93    \nframe=  199 fps=1.0 q=43.7 size=     512KiB time=00:00:03.94 bitrate=1064.6kbits/s speed=0.0194x elapsed=0:03:23.46    \nframe=  200 fps=1.0 q=38.7 size=     512KiB time=00:00:03.96 bitrate=1059.3kbits/s speed=0.0194x elapsed=0:03:23.99    \nframe=  200 fps=1.0 q=38.7 size=     512KiB time=00:00:03.96 bitrate=1059.3kbits/s speed=0.0194x elapsed=0:03:24.52    \nframe=  201 fps=1.0 q=39.9 size=     512KiB time=00:00:03.98 bitrate=1053.9kbits/s speed=0.0194x elapsed=0:03:25.03    \nframe=  201 fps=1.0 q=39.9 size=     512KiB time=00:00:03.98 bitrate=1053.9kbits/s speed=0.0194x elapsed=0:03:25.57    \nframe=  201 fps=1.0 q=39.9 size=     512KiB time=00:00:03.98 bitrate=1053.9kbits/s speed=0.0193x elapsed=0:03:26.10    \nframe=  202 fps=1.0 q=44.5 size=     512KiB time=00:00:04.00 bitrate=1048.7kbits/s speed=0.0194x elapsed=0:03:26.61    \nframe=  203 fps=1.0 q=43.7 size=     512KiB time=00:00:04.02 bitrate=1043.4kbits/s speed=0.0194x elapsed=0:03:27.13    \nframe=  204 fps=1.0 q=43.9 size=     512KiB time=00:00:04.04 bitrate=1038.3kbits/s speed=0.0195x elapsed=0:03:27.65    \nframe=  204 fps=1.0 q=43.9 size=     512KiB time=00:00:04.04 bitrate=1038.3kbits/s speed=0.0194x elapsed=0:03:28.19    \nframe=  205 fps=1.0 q=38.9 size=     512KiB time=00:00:04.06 bitrate=1033.2kbits/s speed=0.0195x elapsed=0:03:28.71    \nframe=  206 fps=1.0 q=43.0 size=     512KiB time=00:00:04.08 bitrate=1028.1kbits/s speed=0.0195x elapsed=0:03:29.22    \nframe=  207 fps=1.0 q=43.8 size=     512KiB time=00:00:04.10 bitrate=1023.1kbits/s speed=0.0195x elapsed=0:03:29.73    \nframe=  208 fps=1.0 q=43.8 size=     512KiB time=00:00:04.12 bitrate=1018.1kbits/s speed=0.0196x elapsed=0:03:30.25    \nframe=  208 fps=1.0 q=43.8 size=     512KiB time=00:00:04.12 bitrate=1018.1kbits/s speed=0.0195x elapsed=0:03:30.76    \nframe=  209 fps=1.0 q=43.6 size=     512KiB time=00:00:04.14 bitrate=1013.2kbits/s speed=0.0196x elapsed=0:03:31.29    \nframe=  209 fps=1.0 q=43.6 size=     512KiB time=00:00:04.14 bitrate=1013.2kbits/s speed=0.0195x elapsed=0:03:31.81    \nframe=  209 fps=1.0 q=43.6 size=     512KiB time=00:00:04.14 bitrate=1013.2kbits/s speed=0.0195x elapsed=0:03:32.32    \nframe=  210 fps=1.0 q=39.0 size=     512KiB time=00:00:04.16 bitrate=1008.3kbits/s speed=0.0195x elapsed=0:03:32.88    \nframe=  211 fps=1.0 q=42.1 size=     512KiB time=00:00:04.18 bitrate=1003.5kbits/s speed=0.0196x elapsed=0:03:33.39    \nframe=  211 fps=1.0 q=42.1 size=     512KiB time=00:00:04.18 bitrate=1003.5kbits/s speed=0.0195x elapsed=0:03:33.91    \nframe=  212 fps=1.0 q=44.6 size=     512KiB time=00:00:04.20 bitrate= 998.7kbits/s speed=0.0196x elapsed=0:03:34.42    \nframe=  213 fps=1.0 q=44.5 size=     512KiB time=00:00:04.22 bitrate= 994.0kbits/s speed=0.0196x elapsed=0:03:34.94    \nframe=  213 fps=1.0 q=44.5 size=     512KiB time=00:00:04.22 bitrate= 994.0kbits/s speed=0.0196x elapsed=0:03:35.46    \nframe=  213 fps=1.0 q=44.5 size=     512KiB time=00:00:04.22 bitrate= 994.0kbits/s speed=0.0195x elapsed=0:03:35.97    \nframe=  213 fps=1.0 q=44.5 size=     512KiB time=00:00:04.22 bitrate= 994.0kbits/s speed=0.0195x elapsed=0:03:36.48    \nframe=  214 fps=1.0 q=39.3 size=     512KiB time=00:00:04.24 bitrate= 989.3kbits/s speed=0.0195x elapsed=0:03:37.00    \nframe=  214 fps=1.0 q=39.3 size=     512KiB time=00:00:04.24 bitrate= 989.3kbits/s speed=0.0195x elapsed=0:03:37.52    \nframe=  215 fps=1.0 q=42.4 size=     768KiB time=00:00:04.26 bitrate=1477.0kbits/s speed=0.0195x elapsed=0:03:38.04    \nframe=  215 fps=1.0 q=42.4 size=     768KiB time=00:00:04.26 bitrate=1477.0kbits/s speed=0.0195x elapsed=0:03:38.56    \nframe=  216 fps=1.0 q=44.6 size=     768KiB time=00:00:04.28 bitrate=1470.0kbits/s speed=0.0195x elapsed=0:03:39.10    \nframe=  217 fps=1.0 q=44.4 size=     768KiB time=00:00:04.30 bitrate=1463.2kbits/s speed=0.0196x elapsed=0:03:39.61    \nframe=  217 fps=1.0 q=44.4 size=     768KiB time=00:00:04.30 bitrate=1463.2kbits/s speed=0.0195x elapsed=0:03:40.13    \nframe=  217 fps=1.0 q=44.4 size=     768KiB time=00:00:04.30 bitrate=1463.2kbits/s speed=0.0195x elapsed=0:03:40.66    \nframe=  218 fps=1.0 q=38.7 size=     768KiB time=00:00:04.32 bitrate=1456.4kbits/s speed=0.0195x elapsed=0:03:41.19    \nframe=  218 fps=1.0 q=38.7 size=     768KiB time=00:00:04.32 bitrate=1456.4kbits/s speed=0.0195x elapsed=0:03:41.71    \nframe=  219 fps=1.0 q=42.3 size=     768KiB time=00:00:04.34 bitrate=1449.7kbits/s speed=0.0195x elapsed=0:03:42.24    \nframe=  219 fps=1.0 q=42.3 size=     768KiB time=00:00:04.34 bitrate=1449.7kbits/s speed=0.0195x elapsed=0:03:42.79    \nframe=  220 fps=1.0 q=44.7 size=     768KiB time=00:00:04.36 bitrate=1443.1kbits/s speed=0.0195x elapsed=0:03:43.31    \nframe=  221 fps=1.0 q=44.6 size=     768KiB time=00:00:04.38 bitrate=1436.5kbits/s speed=0.0196x elapsed=0:03:43.82    \nframe=  222 fps=1.0 q=39.0 size=     768KiB time=00:00:04.40 bitrate=1430.0kbits/s speed=0.0196x elapsed=0:03:44.34    \nframe=  223 fps=1.0 q=42.3 size=     768KiB time=00:00:04.42 bitrate=1423.5kbits/s speed=0.0197x elapsed=0:03:44.88    \nframe=  223 fps=1.0 q=42.3 size=     768KiB time=00:00:04.42 bitrate=1423.5kbits/s speed=0.0196x elapsed=0:03:45.41    \nframe=  223 fps=1.0 q=42.3 size=     768KiB time=00:00:04.42 bitrate=1423.5kbits/s speed=0.0196x elapsed=0:03:45.93    \nframe=  224 fps=1.0 q=44.8 size=     768KiB time=00:00:04.44 bitrate=1417.1kbits/s speed=0.0196x elapsed=0:03:46.44    \nframe=  225 fps=1.0 q=44.8 size=     768KiB time=00:00:04.46 bitrate=1410.7kbits/s speed=0.0197x elapsed=0:03:46.95    \nframe=  226 fps=1.0 q=38.6 size=     768KiB time=00:00:04.48 bitrate=1404.4kbits/s speed=0.0197x elapsed=0:03:47.48    \nframe=  226 fps=1.0 q=38.6 size=     768KiB time=00:00:04.48 bitrate=1404.4kbits/s speed=0.0196x elapsed=0:03:48.00    \nframe=  227 fps=1.0 q=43.0 size=     768KiB time=00:00:04.50 bitrate=1398.2kbits/s speed=0.0197x elapsed=0:03:48.52    \nframe=  227 fps=1.0 q=43.0 size=     768KiB time=00:00:04.50 bitrate=1398.2kbits/s speed=0.0196x elapsed=0:03:49.03    \nframe=  228 fps=1.0 q=44.0 size=     768KiB time=00:00:04.52 bitrate=1392.0kbits/s speed=0.0197x elapsed=0:03:49.57    \nframe=  229 fps=1.0 q=43.6 size=     768KiB time=00:00:04.54 bitrate=1385.9kbits/s speed=0.0197x elapsed=0:03:50.09    \nframe=  230 fps=1.0 q=43.6 size=     768KiB time=00:00:04.56 bitrate=1379.8kbits/s speed=0.0198x elapsed=0:03:50.60    \nframe=  230 fps=1.0 q=43.6 size=     768KiB time=00:00:04.56 bitrate=1379.8kbits/s speed=0.0197x elapsed=0:03:51.15    \nframe=  231 fps=1.0 q=38.8 size=     768KiB time=00:00:04.58 bitrate=1373.8kbits/s speed=0.0198x elapsed=0:03:51.67    \nframe=  232 fps=1.0 q=43.5 size=     768KiB time=00:00:04.60 bitrate=1367.8kbits/s speed=0.0198x elapsed=0:03:52.19    \nframe=  232 fps=1.0 q=43.5 size=     768KiB time=00:00:04.60 bitrate=1367.8kbits/s speed=0.0198x elapsed=0:03:52.70    \nframe=  233 fps=1.0 q=44.9 size=     768KiB time=00:00:04.62 bitrate=1361.9kbits/s speed=0.0198x elapsed=0:03:53.23    \nframe=  233 fps=1.0 q=44.9 size=     768KiB time=00:00:04.62 bitrate=1361.9kbits/s speed=0.0198x elapsed=0:03:53.75    \nframe=  234 fps=1.0 q=45.0 size=     768KiB time=00:00:04.64 bitrate=1356.0kbits/s speed=0.0198x elapsed=0:03:54.27    \nframe=  235 fps=1.0 q=45.0 size=     768KiB time=00:00:04.66 bitrate=1350.2kbits/s speed=0.0198x elapsed=0:03:54.82    \nframe=  236 fps=1.0 q=38.9 size=     768KiB time=00:00:04.68 bitrate=1344.4kbits/s speed=0.0199x elapsed=0:03:55.34    \nframe=  236 fps=1.0 q=38.9 size=     768KiB time=00:00:04.68 bitrate=1344.4kbits/s speed=0.0198x elapsed=0:03:55.89    \nframe=  237 fps=1.0 q=42.4 size=     768KiB time=00:00:04.70 bitrate=1338.7kbits/s speed=0.0199x elapsed=0:03:56.40    \nframe=  238 fps=1.0 q=44.8 size=     768KiB time=00:00:04.70 bitrate=1338.7kbits/s speed=0.0198x elapsed=0:03:56.92    \nframe=  238 fps=1.0 q=44.8 size=     768KiB time=00:00:04.72 bitrate=1333.0kbits/s speed=0.0199x elapsed=0:03:57.44    \nframe=  239 fps=1.0 q=44.7 size=     768KiB time=00:00:04.74 bitrate=1327.4kbits/s speed=0.0199x elapsed=0:03:57.96    \nframe=  239 fps=1.0 q=44.7 size=     768KiB time=00:00:04.74 bitrate=1327.4kbits/s speed=0.0199x elapsed=0:03:58.48    \nframe=  239 fps=1.0 q=44.7 size=     768KiB time=00:00:04.74 bitrate=1327.4kbits/s speed=0.0198x elapsed=0:03:58.98    \nframe=  240 fps=1.0 q=38.9 size=     768KiB time=00:00:04.76 bitrate=1321.8kbits/s speed=0.0199x elapsed=0:03:59.49    \nframe=  240 fps=1.0 q=38.9 size=     768KiB time=00:00:04.76 bitrate=1321.8kbits/s speed=0.0198x elapsed=0:04:00.02    \nframe=  241 fps=1.0 q=42.1 size=     768KiB time=00:00:04.78 bitrate=1316.3kbits/s speed=0.0199x elapsed=0:04:00.53    \nframe=  241 fps=1.0 q=42.1 size=     768KiB time=00:00:04.78 bitrate=1316.3kbits/s speed=0.0198x elapsed=0:04:01.05    \nframe=  241 fps=1.0 q=42.1 size=     768KiB time=00:00:04.78 bitrate=1316.3kbits/s speed=0.0198x elapsed=0:04:01.58    \nframe=  242 fps=1.0 q=44.8 size=     768KiB time=00:00:04.80 bitrate=1310.8kbits/s speed=0.0198x elapsed=0:04:02.11    \nframe=  243 fps=1.0 q=44.5 size=     768KiB time=00:00:04.82 bitrate=1305.4kbits/s speed=0.0199x elapsed=0:04:02.63    \nframe=  243 fps=1.0 q=44.5 size=     768KiB time=00:00:04.82 bitrate=1305.4kbits/s speed=0.0198x elapsed=0:04:03.17    \nframe=  244 fps=1.0 q=44.8 size=     768KiB time=00:00:04.84 bitrate=1300.0kbits/s speed=0.0199x elapsed=0:04:03.71    \nframe=  244 fps=1.0 q=44.8 size=     768KiB time=00:00:04.84 bitrate=1300.0kbits/s speed=0.0198x elapsed=0:04:04.24    \nframe=  245 fps=1.0 q=38.7 size=     768KiB time=00:00:04.86 bitrate=1294.6kbits/s speed=0.0199x elapsed=0:04:04.77    \nframe=  246 fps=1.0 q=40.1 size=     768KiB time=00:00:04.88 bitrate=1289.3kbits/s speed=0.0199x elapsed=0:04:05.29    \nframe=  247 fps=1.0 q=44.5 size=     768KiB time=00:00:04.90 bitrate=1284.0kbits/s speed=0.0199x elapsed=0:04:05.80    \nframe=  247 fps=1.0 q=44.5 size=     768KiB time=00:00:04.90 bitrate=1284.0kbits/s speed=0.0199x elapsed=0:04:06.32    \nframe=  248 fps=1.0 q=44.5 size=     768KiB time=00:00:04.92 bitrate=1278.8kbits/s speed=0.0199x elapsed=0:04:06.85    \nframe=  248 fps=1.0 q=44.5 size=     768KiB time=00:00:04.92 bitrate=1278.8kbits/s speed=0.0199x elapsed=0:04:07.37    \nframe=  249 fps=1.0 q=44.8 size=     768KiB time=00:00:04.94 bitrate=1273.6kbits/s speed=0.0199x elapsed=0:04:07.90    \nframe=  249 fps=1.0 q=44.8 size=     768KiB time=00:00:04.94 bitrate=1273.6kbits/s speed=0.0199x elapsed=0:04:08.42    \nframe=  249 fps=1.0 q=44.8 size=     768KiB time=00:00:04.94 bitrate=1273.6kbits/s speed=0.0198x elapsed=0:04:08.95    \nframe=  249 fps=1.0 q=44.8 size=     768KiB time=00:00:04.94 bitrate=1273.6kbits/s speed=0.0198x elapsed=0:04:09.48    \nframe=  251 fps=1.0 q=44.8 size=     768KiB time=00:00:04.98 bitrate=1263.4kbits/s speed=0.0199x elapsed=0:04:10.01    \nframe=  251 fps=1.0 q=44.8 size=     768KiB time=00:00:04.98 bitrate=1263.4kbits/s speed=0.0199x elapsed=0:04:10.53    \nframe=  252 fps=1.0 q=39.3 size=     768KiB time=00:00:05.00 bitrate=1258.4kbits/s speed=0.0199x elapsed=0:04:11.07    \nframe=  252 fps=1.0 q=39.3 size=     768KiB time=00:00:05.00 bitrate=1258.4kbits/s speed=0.0199x elapsed=0:04:11.57    \nframe=  252 fps=1.0 q=39.3 size=     768KiB time=00:00:05.00 bitrate=1258.4kbits/s speed=0.0198x elapsed=0:04:12.09    \nframe=  254 fps=1.0 q=45.5 size=     768KiB time=00:00:05.04 bitrate=1248.4kbits/s speed=0.02x elapsed=0:04:12.61    \nframe=  255 fps=1.0 q=45.4 size=     768KiB time=00:00:05.06 bitrate=1243.4kbits/s speed=0.02x elapsed=0:04:13.13    \nframe=  255 fps=1.0 q=45.4 size=     768KiB time=00:00:05.06 bitrate=1243.4kbits/s speed=0.0199x elapsed=0:04:13.65    \nframe=  255 fps=1.0 q=45.4 size=     768KiB time=00:00:05.06 bitrate=1243.4kbits/s speed=0.0199x elapsed=0:04:14.16    \nframe=  255 fps=1.0 q=45.4 size=     768KiB time=00:00:05.06 bitrate=1243.4kbits/s speed=0.0199x elapsed=0:04:14.67    \nframe=  256 fps=1.0 q=39.2 size=     768KiB time=00:00:05.08 bitrate=1238.5kbits/s speed=0.0199x elapsed=0:04:15.19    \nframe=  257 fps=1.0 q=42.8 size=     768KiB time=00:00:05.10 bitrate=1233.7kbits/s speed=0.0199x elapsed=0:04:15.71    \nframe=  257 fps=1.0 q=42.8 size=     768KiB time=00:00:05.10 bitrate=1233.7kbits/s speed=0.0199x elapsed=0:04:16.22    \nframe=  258 fps=1.0 q=45.6 size=     768KiB time=00:00:05.12 bitrate=1228.9kbits/s speed=0.0199x elapsed=0:04:16.74    \nframe=  259 fps=1.0 q=45.4 size=     768KiB time=00:00:05.14 bitrate=1224.1kbits/s speed=0.02x elapsed=0:04:17.26    \nframe=  259 fps=1.0 q=45.4 size=     768KiB time=00:00:05.14 bitrate=1224.1kbits/s speed=0.0199x elapsed=0:04:17.79    \nframe=  259 fps=1.0 q=45.4 size=     768KiB time=00:00:05.14 bitrate=1224.1kbits/s speed=0.0199x elapsed=0:04:18.30    \nframe=  260 fps=1.0 q=39.1 size=     768KiB time=00:00:05.16 bitrate=1219.3kbits/s speed=0.0199x elapsed=0:04:18.82    \nframe=  261 fps=1.0 q=43.2 size=     768KiB time=00:00:05.18 bitrate=1214.6kbits/s speed=0.02x elapsed=0:04:19.36    \nframe=  261 fps=1.0 q=43.2 size=     768KiB time=00:00:05.18 bitrate=1214.6kbits/s speed=0.0199x elapsed=0:04:19.88    \nframe=  261 fps=1.0 q=43.2 size=     768KiB time=00:00:05.18 bitrate=1214.6kbits/s speed=0.0199x elapsed=0:04:20.42    \nframe=  264 fps=1.0 q=39.1 size=     768KiB time=00:00:05.24 bitrate=1200.7kbits/s speed=0.0201x elapsed=0:04:20.94    \nframe=  264 fps=1.0 q=39.1 size=     768KiB time=00:00:05.24 bitrate=1200.7kbits/s speed=0.02x elapsed=0:04:21.46    \nframe=  264 fps=1.0 q=39.1 size=     768KiB time=00:00:05.24 bitrate=1200.7kbits/s speed=0.02x elapsed=0:04:21.97    \nframe=  265 fps=1.0 q=43.0 size=     768KiB time=00:00:05.26 bitrate=1196.2kbits/s speed=0.02x elapsed=0:04:22.51    \nframe=  266 fps=1.0 q=45.6 size=     768KiB time=00:00:05.28 bitrate=1191.6kbits/s speed=0.0201x elapsed=0:04:23.04    \nframe=  266 fps=1.0 q=45.6 size=     768KiB time=00:00:05.28 bitrate=1191.6kbits/s speed=0.02x elapsed=0:04:23.59    \nframe=  267 fps=1.0 q=45.6 size=     768KiB time=00:00:05.30 bitrate=1187.1kbits/s speed=0.0201x elapsed=0:04:24.11    \nframe=  267 fps=1.0 q=45.6 size=     768KiB time=00:00:05.30 bitrate=1187.1kbits/s speed=0.02x elapsed=0:04:24.62    \nframe=  268 fps=1.0 q=39.1 size=     768KiB time=00:00:05.32 bitrate=1182.7kbits/s speed=0.0201x elapsed=0:04:25.15    \nframe=  268 fps=1.0 q=39.1 size=     768KiB time=00:00:05.32 bitrate=1182.7kbits/s speed=0.02x elapsed=0:04:25.67    \nframe=  269 fps=1.0 q=42.7 size=     768KiB time=00:00:05.34 bitrate=1178.2kbits/s speed=0.0201x elapsed=0:04:26.20    \nframe=  269 fps=1.0 q=42.7 size=     768KiB time=00:00:05.34 bitrate=1178.2kbits/s speed=0.02x elapsed=0:04:26.72    \nframe=  270 fps=1.0 q=45.5 size=     768KiB time=00:00:05.36 bitrate=1173.8kbits/s speed=0.0201x elapsed=0:04:27.24    \nframe=  271 fps=1.0 q=45.6 size=     768KiB time=00:00:05.38 bitrate=1169.5kbits/s speed=0.0201x elapsed=0:04:27.77    \nframe=  271 fps=1.0 q=45.6 size=     768KiB time=00:00:05.38 bitrate=1169.5kbits/s speed=0.0201x elapsed=0:04:28.29    \nframe=  272 fps=1.0 q=38.9 size=     768KiB time=00:00:05.40 bitrate=1165.1kbits/s speed=0.0201x elapsed=0:04:28.81    \nframe=  272 fps=1.0 q=38.9 size=     768KiB time=00:00:05.40 bitrate=1165.1kbits/s speed=0.02x elapsed=0:04:29.34    \nframe=  273 fps=1.0 q=42.7 size=     768KiB time=00:00:05.42 bitrate=1160.9kbits/s speed=0.0201x elapsed=0:04:29.86    \nframe=  273 fps=1.0 q=42.7 size=     768KiB time=00:00:05.42 bitrate=1160.9kbits/s speed=0.02x elapsed=0:04:30.38    \nframe=  273 fps=1.0 q=42.7 size=     768KiB time=00:00:05.42 bitrate=1160.9kbits/s speed=0.02x elapsed=0:04:30.89    \nframe=  274 fps=1.0 q=45.5 size=    1024KiB time=00:00:05.44 bitrate=1542.1kbits/s speed=0.02x elapsed=0:04:31.40    \nframe=  275 fps=1.0 q=45.6 size=    1024KiB time=00:00:05.46 bitrate=1536.4kbits/s speed=0.0201x elapsed=0:04:31.92    \nframe=  275 fps=1.0 q=45.6 size=    1024KiB time=00:00:05.46 bitrate=1536.4kbits/s speed=0.02x elapsed=0:04:32.46    \nframe=  276 fps=1.0 q=45.7 size=    1024KiB time=00:00:05.48 bitrate=1530.8kbits/s speed=0.0201x elapsed=0:04:32.98    \nframe=  277 fps=1.0 q=39.1 size=    1024KiB time=00:00:05.50 bitrate=1525.3kbits/s speed=0.0201x elapsed=0:04:33.51    \nframe=  277 fps=1.0 q=39.1 size=    1024KiB time=00:00:05.50 bitrate=1525.3kbits/s speed=0.0201x elapsed=0:04:34.02    \nframe=  278 fps=1.0 q=42.9 size=    1024KiB time=00:00:05.52 bitrate=1519.7kbits/s speed=0.0201x elapsed=0:04:34.55    \nframe=  278 fps=1.0 q=42.9 size=    1024KiB time=00:00:05.52 bitrate=1519.7kbits/s speed=0.0201x elapsed=0:04:35.07    \nframe=  279 fps=1.0 q=45.7 size=    1024KiB time=00:00:05.54 bitrate=1514.3kbits/s speed=0.0201x elapsed=0:04:35.60    \nframe=  280 fps=1.0 q=45.8 size=    1024KiB time=00:00:05.56 bitrate=1508.8kbits/s speed=0.0201x elapsed=0:04:36.12    \nframe=  280 fps=1.0 q=45.8 size=    1024KiB time=00:00:05.56 bitrate=1508.8kbits/s speed=0.0201x elapsed=0:04:36.65    \nframe=  280 fps=1.0 q=45.8 size=    1024KiB time=00:00:05.56 bitrate=1508.8kbits/s speed=0.0201x elapsed=0:04:37.17    \nframe=  280 fps=1.0 q=45.8 size=    1024KiB time=00:00:05.56 bitrate=1508.8kbits/s speed=0.02x elapsed=0:04:37.68    \nframe=  281 fps=1.0 q=39.3 size=    1024KiB time=00:00:05.58 bitrate=1503.4kbits/s speed=0.0201x elapsed=0:04:38.20    \nframe=  281 fps=1.0 q=39.3 size=    1024KiB time=00:00:05.58 bitrate=1503.4kbits/s speed=0.02x elapsed=0:04:38.72    \nframe=  282 fps=1.0 q=42.4 size=    1024KiB time=00:00:05.60 bitrate=1498.0kbits/s speed=0.0201x elapsed=0:04:39.25    \nframe=  283 fps=1.0 q=45.5 size=    1024KiB time=00:00:05.62 bitrate=1492.7kbits/s speed=0.0201x elapsed=0:04:39.79    \nframe=  284 fps=1.0 q=45.8 size=    1024KiB time=00:00:05.64 bitrate=1487.4kbits/s speed=0.0201x elapsed=0:04:40.31    \nframe=  284 fps=1.0 q=45.8 size=    1024KiB time=00:00:05.64 bitrate=1487.4kbits/s speed=0.0201x elapsed=0:04:40.84    \nframe=  285 fps=1.0 q=45.8 size=    1024KiB time=00:00:05.66 bitrate=1482.1kbits/s speed=0.0201x elapsed=0:04:41.35    \nframe=  285 fps=1.0 q=45.8 size=    1024KiB time=00:00:05.66 bitrate=1482.1kbits/s speed=0.0201x elapsed=0:04:41.88    \nframe=  286 fps=1.0 q=39.2 size=    1024KiB time=00:00:05.68 bitrate=1476.9kbits/s speed=0.0201x elapsed=0:04:42.39    \nframe=  286 fps=1.0 q=39.2 size=    1024KiB time=00:00:05.68 bitrate=1476.9kbits/s speed=0.0201x elapsed=0:04:42.91    \nframe=  287 fps=1.0 q=43.2 size=    1024KiB time=00:00:05.70 bitrate=1471.7kbits/s speed=0.0201x elapsed=0:04:43.42    \nframe=  288 fps=1.0 q=46.0 size=    1024KiB time=00:00:05.72 bitrate=1466.6kbits/s speed=0.0201x elapsed=0:04:43.93    \nframe=  288 fps=1.0 q=46.0 size=    1024KiB time=00:00:05.72 bitrate=1466.6kbits/s speed=0.0201x elapsed=0:04:44.45    \nframe=  289 fps=1.0 q=45.7 size=    1024KiB time=00:00:05.74 bitrate=1461.5kbits/s speed=0.0201x elapsed=0:04:44.97    \nframe=  290 fps=1.0 q=39.2 size=    1024KiB time=00:00:05.76 bitrate=1456.4kbits/s speed=0.0202x elapsed=0:04:45.49    \nframe=  290 fps=1.0 q=39.2 size=    1024KiB time=00:00:05.76 bitrate=1456.4kbits/s speed=0.0201x elapsed=0:04:46.00    \nframe=  291 fps=1.0 q=43.3 size=    1024KiB time=00:00:05.78 bitrate=1451.4kbits/s speed=0.0202x elapsed=0:04:46.52    \nframe=  291 fps=1.0 q=43.3 size=    1024KiB time=00:00:05.78 bitrate=1451.4kbits/s speed=0.0201x elapsed=0:04:47.05    \nframe=  291 fps=1.0 q=43.3 size=    1024KiB time=00:00:05.78 bitrate=1451.4kbits/s speed=0.0201x elapsed=0:04:47.58    \nframe=  291 fps=1.0 q=43.3 size=    1024KiB time=00:00:05.78 bitrate=1451.4kbits/s speed=0.0201x elapsed=0:04:48.12    \nframe=  291 fps=1.0 q=43.3 size=    1024KiB time=00:00:05.78 bitrate=1451.4kbits/s speed=0.02x elapsed=0:04:48.66    \nframe=  292 fps=1.0 q=45.6 size=    1024KiB time=00:00:05.80 bitrate=1446.4kbits/s speed=0.0201x elapsed=0:04:49.20    \nframe=  293 fps=1.0 q=45.7 size=    1024KiB time=00:00:05.82 bitrate=1441.4kbits/s speed=0.0201x elapsed=0:04:49.74    \nframe=  294 fps=1.0 q=39.1 size=    1024KiB time=00:00:05.84 bitrate=1436.5kbits/s speed=0.0201x elapsed=0:04:50.25    \nframe=  295 fps=1.0 q=42.5 size=    1024KiB time=00:00:05.86 bitrate=1431.6kbits/s speed=0.0202x elapsed=0:04:50.77    \nframe=  296 fps=1.0 q=45.4 size=    1024KiB time=00:00:05.88 bitrate=1426.7kbits/s speed=0.0202x elapsed=0:04:51.28    \nframe=  298 fps=1.0 q=45.5 size=    1024KiB time=00:00:05.92 bitrate=1417.1kbits/s speed=0.0203x elapsed=0:04:51.80    \nframe=  298 fps=1.0 q=45.5 size=    1024KiB time=00:00:05.92 bitrate=1417.1kbits/s speed=0.0203x elapsed=0:04:52.31    \nframe=  300 fps=1.0 q=43.1 size=    1024KiB time=00:00:05.96 bitrate=1407.5kbits/s speed=0.0204x elapsed=0:04:52.84    \nframe=  301 fps=1.0 q=45.5 size=    1024KiB time=00:00:05.98 bitrate=1402.8kbits/s speed=0.0204x elapsed=0:04:53.34    \nframe=  302 fps=1.0 q=45.6 size=    1024KiB time=00:00:06.00 bitrate=1398.2kbits/s speed=0.0204x elapsed=0:04:53.86    \nframe=  303 fps=1.0 q=39.2 size=    1024KiB time=00:00:06.02 bitrate=1393.5kbits/s speed=0.0205x elapsed=0:04:54.37    \nframe=  304 fps=1.0 q=42.6 size=    1024KiB time=00:00:06.04 bitrate=1388.9kbits/s speed=0.0205x elapsed=0:04:54.89    \nframe=  306 fps=1.0 q=45.4 size=    1024KiB time=00:00:06.08 bitrate=1379.8kbits/s speed=0.0206x elapsed=0:04:55.40    \nframe=  307 fps=1.0 q=45.4 size=    1024KiB time=00:00:06.10 bitrate=1375.2kbits/s speed=0.0206x elapsed=0:04:55.92    \nframe=  308 fps=1.0 q=39.1 size=    1024KiB time=00:00:06.12 bitrate=1370.7kbits/s speed=0.0206x elapsed=0:04:56.47    \nframe=  308 fps=1.0 q=39.1 size=    1024KiB time=00:00:06.12 bitrate=1370.7kbits/s speed=0.0206x elapsed=0:04:57.03    \nframe=  308 fps=1.0 q=39.1 size=    1024KiB time=00:00:06.12 bitrate=1370.7kbits/s speed=0.0206x elapsed=0:04:57.56    \nframe=  308 fps=1.0 q=39.1 size=    1024KiB time=00:00:06.12 bitrate=1370.7kbits/s speed=0.0205x elapsed=0:04:58.08    \nframe=  308 fps=1.0 q=39.1 size=    1024KiB time=00:00:06.12 bitrate=1370.7kbits/s speed=0.0205x elapsed=0:04:58.61    \nframe=  309 fps=1.0 q=43.4 size=    1024KiB time=00:00:06.14 bitrate=1366.3kbits/s speed=0.0205x elapsed=0:04:59.13    \nframe=  309 fps=1.0 q=43.4 size=    1024KiB time=00:00:06.14 bitrate=1366.3kbits/s speed=0.0205x elapsed=0:04:59.66    \nframe=  309 fps=1.0 q=43.4 size=    1024KiB time=00:00:06.14 bitrate=1366.3kbits/s speed=0.0205x elapsed=0:05:00.18    \nframe=  310 fps=1.0 q=45.6 size=    1024KiB time=00:00:06.16 bitrate=1361.8kbits/s speed=0.0205x elapsed=0:05:00.71    \nframe=  311 fps=1.0 q=45.5 size=    1024KiB time=00:00:06.18 bitrate=1357.4kbits/s speed=0.0205x elapsed=0:05:01.23    \nframe=  311 fps=1.0 q=45.5 size=    1024KiB time=00:00:06.18 bitrate=1357.4kbits/s speed=0.0205x elapsed=0:05:01.74    \nframe=  311 fps=1.0 q=45.5 size=    1024KiB time=00:00:06.18 bitrate=1357.4kbits/s speed=0.0204x elapsed=0:05:02.25    \nframe=  312 fps=1.0 q=39.5 size=    1024KiB time=00:00:06.20 bitrate=1353.1kbits/s speed=0.0205x elapsed=0:05:02.77    \nframe=  313 fps=1.0 q=43.0 size=    1024KiB time=00:00:06.22 bitrate=1348.7kbits/s speed=0.0205x elapsed=0:05:03.28    \nframe=  314 fps=1.0 q=45.5 size=    1024KiB time=00:00:06.24 bitrate=1344.4kbits/s speed=0.0205x elapsed=0:05:03.80    \nframe=  315 fps=1.0 q=45.4 size=    1024KiB time=00:00:06.26 bitrate=1340.1kbits/s speed=0.0206x elapsed=0:05:04.33    \nframe=  315 fps=1.0 q=45.4 size=    1024KiB time=00:00:06.26 bitrate=1340.1kbits/s speed=0.0205x elapsed=0:05:04.86    \nframe=  315 fps=1.0 q=45.4 size=    1024KiB time=00:00:06.26 bitrate=1340.1kbits/s speed=0.0205x elapsed=0:05:05.39    \nframe=  316 fps=1.0 q=45.5 size=    1024KiB time=00:00:06.28 bitrate=1335.8kbits/s speed=0.0205x elapsed=0:05:05.91    \nframe=  316 fps=1.0 q=45.5 size=    1024KiB time=00:00:06.28 bitrate=1335.8kbits/s speed=0.0205x elapsed=0:05:06.44    \nframe=  316 fps=1.0 q=45.5 size=    1024KiB time=00:00:06.28 bitrate=1335.8kbits/s speed=0.0205x elapsed=0:05:06.97    \nframe=  317 fps=1.0 q=39.7 size=    1024KiB time=00:00:06.30 bitrate=1331.6kbits/s speed=0.0205x elapsed=0:05:07.50    \nframe=  318 fps=1.0 q=43.5 size=    1024KiB time=00:00:06.32 bitrate=1327.4kbits/s speed=0.0205x elapsed=0:05:08.05    \nframe=  318 fps=1.0 q=43.5 size=    1024KiB time=00:00:06.32 bitrate=1327.4kbits/s speed=0.0205x elapsed=0:05:08.57    \nframe=  319 fps=1.0 q=45.6 size=    1024KiB time=00:00:06.34 bitrate=1323.2kbits/s speed=0.0205x elapsed=0:05:09.10    \nframe=  319 fps=1.0 q=45.6 size=    1024KiB time=00:00:06.34 bitrate=1323.2kbits/s speed=0.0205x elapsed=0:05:09.62    \nframe=  320 fps=1.0 q=45.5 size=    1024KiB time=00:00:06.36 bitrate=1319.0kbits/s speed=0.0205x elapsed=0:05:10.14    \nframe=  320 fps=1.0 q=45.5 size=    1024KiB time=00:00:06.36 bitrate=1319.0kbits/s speed=0.0205x elapsed=0:05:10.66    \nframe=  320 fps=1.0 q=45.5 size=    1024KiB time=00:00:06.36 bitrate=1319.0kbits/s speed=0.0204x elapsed=0:05:11.17    \nframe=  320 fps=1.0 q=45.5 size=    1024KiB time=00:00:06.36 bitrate=1319.0kbits/s speed=0.0204x elapsed=0:05:11.70    \nframe=  321 fps=1.0 q=39.4 size=    1024KiB time=00:00:06.38 bitrate=1314.9kbits/s speed=0.0204x elapsed=0:05:12.22    \nframe=  322 fps=1.0 q=41.7 size=    1024KiB time=00:00:06.40 bitrate=1310.8kbits/s speed=0.0205x elapsed=0:05:12.73    \nframe=  323 fps=1.0 q=45.6 size=    1024KiB time=00:00:06.42 bitrate=1306.7kbits/s speed=0.0205x elapsed=0:05:13.26    \nframe=  324 fps=1.0 q=45.4 size=    1024KiB time=00:00:06.44 bitrate=1302.6kbits/s speed=0.0205x elapsed=0:05:13.80    \nframe=  325 fps=1.0 q=45.6 size=    1024KiB time=00:00:06.46 bitrate=1298.6kbits/s speed=0.0206x elapsed=0:05:14.31    \nframe=  326 fps=1.0 q=39.2 size=    1024KiB time=00:00:06.48 bitrate=1294.6kbits/s speed=0.0206x elapsed=0:05:14.84    \nframe=  326 fps=1.0 q=39.2 size=    1024KiB time=00:00:06.48 bitrate=1294.6kbits/s speed=0.0205x elapsed=0:05:15.35    \nframe=  327 fps=1.0 q=41.0 size=    1024KiB time=00:00:06.50 bitrate=1290.6kbits/s speed=0.0206x elapsed=0:05:15.91    \nframe=  328 fps=1.0 q=45.5 size=    1024KiB time=00:00:06.52 bitrate=1286.7kbits/s speed=0.0206x elapsed=0:05:16.45    \nframe=  329 fps=1.0 q=45.5 size=    1024KiB time=00:00:06.54 bitrate=1282.7kbits/s speed=0.0206x elapsed=0:05:16.97    \nframe=  330 fps=1.0 q=45.7 size=    1024KiB time=00:00:06.56 bitrate=1278.8kbits/s speed=0.0207x elapsed=0:05:17.50    \nframe=  330 fps=1.0 q=45.7 size=    1024KiB time=00:00:06.56 bitrate=1278.8kbits/s speed=0.0206x elapsed=0:05:18.05    \nframe=  330 fps=1.0 q=45.7 size=    1024KiB time=00:00:06.56 bitrate=1278.8kbits/s speed=0.0206x elapsed=0:05:18.58    \nframe=  331 fps=1.0 q=39.4 size=    1024KiB time=00:00:06.58 bitrate=1274.9kbits/s speed=0.0206x elapsed=0:05:19.12    \nframe=  331 fps=1.0 q=39.4 size=    1024KiB time=00:00:06.58 bitrate=1274.9kbits/s speed=0.0206x elapsed=0:05:19.64    \nframe=  331 fps=1.0 q=39.4 size=    1024KiB time=00:00:06.58 bitrate=1274.9kbits/s speed=0.0206x elapsed=0:05:20.17    \nframe=  333 fps=1.0 q=45.7 size=    1024KiB time=00:00:06.62 bitrate=1267.2kbits/s speed=0.0206x elapsed=0:05:20.70    \nframe=  333 fps=1.0 q=45.7 size=    1024KiB time=00:00:06.62 bitrate=1267.2kbits/s speed=0.0206x elapsed=0:05:21.22    \nframe=  333 fps=1.0 q=45.7 size=    1024KiB time=00:00:06.62 bitrate=1267.2kbits/s speed=0.0206x elapsed=0:05:21.75    \nframe=  334 fps=1.0 q=45.9 size=    1024KiB time=00:00:06.64 bitrate=1263.4kbits/s speed=0.0206x elapsed=0:05:22.28    \nframe=  335 fps=1.0 q=39.8 size=    1024KiB time=00:00:06.66 bitrate=1259.6kbits/s speed=0.0206x elapsed=0:05:22.80    \nframe=  336 fps=1.0 q=42.5 size=    1024KiB time=00:00:06.68 bitrate=1255.8kbits/s speed=0.0207x elapsed=0:05:23.33    \nframe=  337 fps=1.0 q=45.8 size=    1024KiB time=00:00:06.70 bitrate=1252.1kbits/s speed=0.0207x elapsed=0:05:23.87    \nframe=  337 fps=1.0 q=45.8 size=    1024KiB time=00:00:06.70 bitrate=1252.1kbits/s speed=0.0207x elapsed=0:05:24.43    \nframe=  337 fps=1.0 q=45.8 size=    1024KiB time=00:00:06.70 bitrate=1252.1kbits/s speed=0.0206x elapsed=0:05:24.95    \nframe=  338 fps=1.0 q=45.6 size=    1024KiB time=00:00:06.72 bitrate=1248.4kbits/s speed=0.0206x elapsed=0:05:25.48    \nframe=  338 fps=1.0 q=45.6 size=    1024KiB time=00:00:06.72 bitrate=1248.4kbits/s speed=0.0206x elapsed=0:05:26.00    \nframe=  338 fps=1.0 q=45.6 size=    1024KiB time=00:00:06.72 bitrate=1248.4kbits/s speed=0.0206x elapsed=0:05:26.53    \nframe=  339 fps=1.0 q=45.9 size=    1024KiB time=00:00:06.74 bitrate=1244.7kbits/s speed=0.0206x elapsed=0:05:27.06    \nframe=  339 fps=1.0 q=45.9 size=    1024KiB time=00:00:06.74 bitrate=1244.7kbits/s speed=0.0206x elapsed=0:05:27.59    \nframe=  339 fps=1.0 q=45.9 size=    1024KiB time=00:00:06.74 bitrate=1244.7kbits/s speed=0.0205x elapsed=0:05:28.12    \nframe=  339 fps=1.0 q=45.9 size=    1024KiB time=00:00:06.74 bitrate=1244.7kbits/s speed=0.0205x elapsed=0:05:28.64    \nframe=  341 fps=1.0 q=43.6 size=    1024KiB time=00:00:06.78 bitrate=1237.3kbits/s speed=0.0206x elapsed=0:05:29.15    \nframe=  342 fps=1.0 q=45.9 size=    1024KiB time=00:00:06.80 bitrate=1233.7kbits/s speed=0.0206x elapsed=0:05:29.68    \nframe=  343 fps=1.0 q=45.8 size=    1024KiB time=00:00:06.82 bitrate=1230.1kbits/s speed=0.0207x elapsed=0:05:30.19    \nframe=  345 fps=1.0 q=43.5 size=    1024KiB time=00:00:06.86 bitrate=1222.9kbits/s speed=0.0207x elapsed=0:05:30.71    \nframe=  346 fps=1.0 q=45.9 size=    1024KiB time=00:00:06.88 bitrate=1219.3kbits/s speed=0.0208x elapsed=0:05:31.22    \nframe=  346 fps=1.0 q=45.9 size=    1024KiB time=00:00:06.88 bitrate=1219.3kbits/s speed=0.0207x elapsed=0:05:31.76    \nframe=  347 fps=1.0 q=45.8 size=    1024KiB time=00:00:06.90 bitrate=1215.8kbits/s speed=0.0208x elapsed=0:05:32.28    \nframe=  348 fps=1.0 q=39.6 size=    1024KiB time=00:00:06.92 bitrate=1212.3kbits/s speed=0.0208x elapsed=0:05:32.82    \nframe=  348 fps=1.0 q=39.6 size=    1024KiB time=00:00:06.92 bitrate=1212.3kbits/s speed=0.0208x elapsed=0:05:33.36    \nframe=  348 fps=1.0 q=39.6 size=    1024KiB time=00:00:06.92 bitrate=1212.3kbits/s speed=0.0207x elapsed=0:05:33.87    \nframe=  349 fps=1.0 q=43.4 size=    1280KiB time=00:00:06.94 bitrate=1511.0kbits/s speed=0.0208x elapsed=0:05:34.39    \nframe=  349 fps=1.0 q=43.4 size=    1280KiB time=00:00:06.94 bitrate=1511.0kbits/s speed=0.0207x elapsed=0:05:34.92    \nframe=  351 fps=1.0 q=45.5 size=    1280KiB time=00:00:06.98 bitrate=1502.3kbits/s speed=0.0208x elapsed=0:05:35.44    \nframe=  351 fps=1.0 q=45.5 size=    1280KiB time=00:00:06.98 bitrate=1502.3kbits/s speed=0.0208x elapsed=0:05:35.95    \nframe=  351 fps=1.0 q=45.5 size=    1280KiB time=00:00:06.98 bitrate=1502.3kbits/s speed=0.0207x elapsed=0:05:36.49    \nframe=  352 fps=1.0 q=39.5 size=    1280KiB time=00:00:07.00 bitrate=1498.0kbits/s speed=0.0208x elapsed=0:05:37.00    \nframe=  352 fps=1.0 q=39.5 size=    1280KiB time=00:00:07.00 bitrate=1498.0kbits/s speed=0.0207x elapsed=0:05:37.52    \nframe=  352 fps=1.0 q=39.5 size=    1280KiB time=00:00:07.00 bitrate=1498.0kbits/s speed=0.0207x elapsed=0:05:38.03    \nframe=  353 fps=1.0 q=43.1 size=    1280KiB time=00:00:07.02 bitrate=1493.7kbits/s speed=0.0207x elapsed=0:05:38.55    \nframe=  353 fps=1.0 q=43.1 size=    1280KiB time=00:00:07.02 bitrate=1493.7kbits/s speed=0.0207x elapsed=0:05:39.06    \nframe=  353 fps=1.0 q=43.1 size=    1280KiB time=00:00:07.02 bitrate=1493.7kbits/s speed=0.0207x elapsed=0:05:39.58    \nframe=  353 fps=1.0 q=43.1 size=    1280KiB time=00:00:07.02 bitrate=1493.7kbits/s speed=0.0206x elapsed=0:05:40.10    \nframe=  355 fps=1.0 q=45.6 size=    1280KiB time=00:00:07.06 bitrate=1485.3kbits/s speed=0.0207x elapsed=0:05:40.61    \nframe=  355 fps=1.0 q=45.6 size=    1280KiB time=00:00:07.06 bitrate=1485.3kbits/s speed=0.0207x elapsed=0:05:41.13    \nframe=  355 fps=1.0 q=45.6 size=    1280KiB time=00:00:07.06 bitrate=1485.3kbits/s speed=0.0207x elapsed=0:05:41.66    \nframe=  356 fps=1.0 q=39.6 size=    1280KiB time=00:00:07.08 bitrate=1481.1kbits/s speed=0.0207x elapsed=0:05:42.19    \nframe=  356 fps=1.0 q=39.6 size=    1280KiB time=00:00:07.08 bitrate=1481.1kbits/s speed=0.0207x elapsed=0:05:42.73    \nframe=  357 fps=1.0 q=44.1 size=    1280KiB time=00:00:07.10 bitrate=1476.9kbits/s speed=0.0207x elapsed=0:05:43.24    \nframe=  357 fps=1.0 q=44.1 size=    1280KiB time=00:00:07.10 bitrate=1476.9kbits/s speed=0.0207x elapsed=0:05:43.77    \nframe=  358 fps=1.0 q=45.4 size=    1280KiB time=00:00:07.12 bitrate=1472.8kbits/s speed=0.0207x elapsed=0:05:44.30    \nframe=  359 fps=1.0 q=45.5 size=    1280KiB time=00:00:07.14 bitrate=1468.6kbits/s speed=0.0207x elapsed=0:05:44.81    \nframe=  360 fps=1.0 q=45.6 size=    1280KiB time=00:00:07.16 bitrate=1464.5kbits/s speed=0.0207x elapsed=0:05:45.34    \nframe=  360 fps=1.0 q=45.6 size=    1280KiB time=00:00:07.16 bitrate=1464.5kbits/s speed=0.0207x elapsed=0:05:45.86    \nframe=  361 fps=1.0 q=39.6 size=    1280KiB time=00:00:07.18 bitrate=1460.5kbits/s speed=0.0207x elapsed=0:05:46.39    \nframe=  361 fps=1.0 q=39.6 size=    1280KiB time=00:00:07.18 bitrate=1460.5kbits/s speed=0.0207x elapsed=0:05:46.92    \nframe=  361 fps=1.0 q=39.6 size=    1280KiB time=00:00:07.18 bitrate=1460.5kbits/s speed=0.0207x elapsed=0:05:47.46    \nframe=  362 fps=1.0 q=42.9 size=    1280KiB time=00:00:07.20 bitrate=1456.4kbits/s speed=0.0207x elapsed=0:05:47.97    \nframe=  362 fps=1.0 q=42.9 size=    1280KiB time=00:00:07.20 bitrate=1456.4kbits/s speed=0.0207x elapsed=0:05:48.48    \nframe=  362 fps=1.0 q=42.9 size=    1280KiB time=00:00:07.20 bitrate=1456.4kbits/s speed=0.0206x elapsed=0:05:49.00    \nframe=  362 fps=1.0 q=42.9 size=    1280KiB time=00:00:07.20 bitrate=1456.4kbits/s speed=0.0206x elapsed=0:05:49.52    \nframe=  363 fps=1.0 q=45.5 size=    1280KiB time=00:00:07.22 bitrate=1452.4kbits/s speed=0.0206x elapsed=0:05:50.03    \nframe=  364 fps=1.0 q=45.5 size=    1280KiB time=00:00:07.24 bitrate=1448.4kbits/s speed=0.0207x elapsed=0:05:50.57    \nframe=  364 fps=1.0 q=45.5 size=    1280KiB time=00:00:07.24 bitrate=1448.4kbits/s speed=0.0206x elapsed=0:05:51.10    \nframe=  364 fps=1.0 q=45.5 size=    1280KiB time=00:00:07.24 bitrate=1448.4kbits/s speed=0.0206x elapsed=0:05:51.60    \nframe=  365 fps=1.0 q=39.8 size=    1280KiB time=00:00:07.26 bitrate=1444.4kbits/s speed=0.0206x elapsed=0:05:52.14    \nframe=  365 fps=1.0 q=39.8 size=    1280KiB time=00:00:07.26 bitrate=1444.4kbits/s speed=0.0206x elapsed=0:05:52.67    \nframe=  366 fps=1.0 q=43.1 size=    1280KiB time=00:00:07.28 bitrate=1440.4kbits/s speed=0.0206x elapsed=0:05:53.19    \nframe=  366 fps=1.0 q=43.1 size=    1280KiB time=00:00:07.28 bitrate=1440.4kbits/s speed=0.0206x elapsed=0:05:53.70    \nframe=  366 fps=1.0 q=43.1 size=    1280KiB time=00:00:07.28 bitrate=1440.4kbits/s speed=0.0206x elapsed=0:05:54.24    \nframe=  367 fps=1.0 q=45.5 size=    1280KiB time=00:00:07.30 bitrate=1436.5kbits/s speed=0.0206x elapsed=0:05:54.76    \nframe=  367 fps=1.0 q=45.5 size=    1280KiB time=00:00:07.30 bitrate=1436.5kbits/s speed=0.0205x elapsed=0:05:55.27    \nframe=  368 fps=1.0 q=45.4 size=    1280KiB time=00:00:07.32 bitrate=1432.5kbits/s speed=0.0206x elapsed=0:05:55.79    \nframe=  368 fps=1.0 q=45.4 size=    1280KiB time=00:00:07.32 bitrate=1432.5kbits/s speed=0.0205x elapsed=0:05:56.30    \nframe=  369 fps=1.0 q=45.7 size=    1280KiB time=00:00:07.34 bitrate=1428.6kbits/s speed=0.0206x elapsed=0:05:56.84    \nframe=  369 fps=1.0 q=45.7 size=    1280KiB time=00:00:07.34 bitrate=1428.6kbits/s speed=0.0205x elapsed=0:05:57.36    \nframe=  369 fps=1.0 q=45.7 size=    1280KiB time=00:00:07.34 bitrate=1428.6kbits/s speed=0.0205x elapsed=0:05:57.89    \nframe=  370 fps=1.0 q=39.8 size=    1280KiB time=00:00:07.36 bitrate=1424.7kbits/s speed=0.0205x elapsed=0:05:58.41    \nframe=  370 fps=1.0 q=39.8 size=    1280KiB time=00:00:07.36 bitrate=1424.7kbits/s speed=0.0205x elapsed=0:05:58.94    \nframe=  371 fps=1.0 q=42.9 size=    1280KiB time=00:00:07.38 bitrate=1420.9kbits/s speed=0.0205x elapsed=0:05:59.46    \nframe=  371 fps=1.0 q=42.9 size=    1280KiB time=00:00:07.38 bitrate=1420.9kbits/s speed=0.0205x elapsed=0:06:00.00    \nframe=  372 fps=1.0 q=45.3 size=    1280KiB time=00:00:07.40 bitrate=1417.0kbits/s speed=0.0205x elapsed=0:06:00.53    \nframe=  373 fps=1.0 q=45.5 size=    1280KiB time=00:00:07.42 bitrate=1413.2kbits/s speed=0.0205x elapsed=0:06:01.07    \nframe=  374 fps=1.0 q=45.7 size=    1280KiB time=00:00:07.44 bitrate=1409.4kbits/s speed=0.0206x elapsed=0:06:01.58    \nframe=  375 fps=1.0 q=39.3 size=    1280KiB time=00:00:07.46 bitrate=1405.6kbits/s speed=0.0206x elapsed=0:06:02.11    \nframe=  375 fps=1.0 q=39.3 size=    1280KiB time=00:00:07.46 bitrate=1405.6kbits/s speed=0.0206x elapsed=0:06:02.65    \nframe=  375 fps=1.0 q=39.3 size=    1280KiB time=00:00:07.46 bitrate=1405.6kbits/s speed=0.0205x elapsed=0:06:03.17    \nframe=  375 fps=1.0 q=39.3 size=    1280KiB time=00:00:07.46 bitrate=1405.6kbits/s speed=0.0205x elapsed=0:06:03.70    \nframe=  376 fps=1.0 q=43.4 size=    1280KiB time=00:00:07.48 bitrate=1401.9kbits/s speed=0.0205x elapsed=0:06:04.24    \nframe=  376 fps=1.0 q=43.4 size=    1280KiB time=00:00:07.48 bitrate=1401.9kbits/s speed=0.0205x elapsed=0:06:04.79    \nframe=  377 fps=1.0 q=45.7 size=    1280KiB time=00:00:07.50 bitrate=1398.1kbits/s speed=0.0205x elapsed=0:06:05.32    \nframe=  377 fps=1.0 q=45.7 size=    1280KiB time=00:00:07.50 bitrate=1398.1kbits/s speed=0.0205x elapsed=0:06:05.85    \nframe=  377 fps=1.0 q=45.7 size=    1280KiB time=00:00:07.50 bitrate=1398.1kbits/s speed=0.0205x elapsed=0:06:06.36    \nframe=  378 fps=1.0 q=45.5 size=    1280KiB time=00:00:07.52 bitrate=1394.4kbits/s speed=0.0205x elapsed=0:06:06.89    \nframe=  378 fps=1.0 q=45.5 size=    1280KiB time=00:00:07.52 bitrate=1394.4kbits/s speed=0.0205x elapsed=0:06:07.41    \nframe=  378 fps=1.0 q=45.5 size=    1280KiB time=00:00:07.52 bitrate=1394.4kbits/s speed=0.0204x elapsed=0:06:07.95    \nframe=  378 fps=1.0 q=45.5 size=    1280KiB time=00:00:07.52 bitrate=1394.4kbits/s speed=0.0204x elapsed=0:06:08.49    \nframe=  378 fps=1.0 q=45.5 size=    1280KiB time=00:00:07.52 bitrate=1394.4kbits/s speed=0.0204x elapsed=0:06:09.00    \nframe=  379 fps=1.0 q=39.3 size=    1280KiB time=00:00:07.54 bitrate=1390.7kbits/s speed=0.0204x elapsed=0:06:09.54    \nframe=  379 fps=1.0 q=39.3 size=    1280KiB time=00:00:07.54 bitrate=1390.7kbits/s speed=0.0204x elapsed=0:06:10.06    \nframe=  380 fps=1.0 q=43.6 size=    1280KiB time=00:00:07.56 bitrate=1387.1kbits/s speed=0.0204x elapsed=0:06:10.58    \nframe=  381 fps=1.0 q=45.6 size=    1280KiB time=00:00:07.58 bitrate=1383.4kbits/s speed=0.0204x elapsed=0:06:11.11    \nframe=  382 fps=1.0 q=45.7 size=    1280KiB time=00:00:07.60 bitrate=1379.8kbits/s speed=0.0205x elapsed=0:06:11.63    \nframe=  383 fps=1.0 q=39.3 size=    1280KiB time=00:00:07.62 bitrate=1376.1kbits/s speed=0.0205x elapsed=0:06:12.15    \nframe=  384 fps=1.0 q=43.3 size=    1280KiB time=00:00:07.64 bitrate=1372.5kbits/s speed=0.0205x elapsed=0:06:12.66    \nframe=  386 fps=1.0 q=45.7 size=    1280KiB time=00:00:07.68 bitrate=1365.4kbits/s speed=0.0206x elapsed=0:06:13.18    \nframe=  387 fps=1.0 q=39.0 size=    1280KiB time=00:00:07.70 bitrate=1361.8kbits/s speed=0.0206x elapsed=0:06:13.69    \nframe=  388 fps=1.0 q=43.3 size=    1280KiB time=00:00:07.72 bitrate=1358.3kbits/s speed=0.0206x elapsed=0:06:14.21    \nframe=  390 fps=1.0 q=46.0 size=    1280KiB time=00:00:07.76 bitrate=1351.3kbits/s speed=0.0207x elapsed=0:06:14.72    \nframe=  391 fps=1.0 q=39.6 size=    1280KiB time=00:00:07.78 bitrate=1347.8kbits/s speed=0.0207x elapsed=0:06:15.24    \nframe=  393 fps=1.0 q=45.8 size=    1280KiB time=00:00:07.82 bitrate=1340.9kbits/s speed=0.0208x elapsed=0:06:15.76    \nframe=  395 fps=1.0 q=46.0 size=    1280KiB time=00:00:07.86 bitrate=1334.1kbits/s speed=0.0209x elapsed=0:06:16.26    \nframe=  396 fps=1.1 q=39.4 size=    1280KiB time=00:00:07.88 bitrate=1330.7kbits/s speed=0.0209x elapsed=0:06:16.78    \nframe=  397 fps=1.1 q=43.3 size=    1280KiB time=00:00:07.90 bitrate=1327.4kbits/s speed=0.0209x elapsed=0:06:17.29    \nframe=  399 fps=1.1 q=44.9 size=    1280KiB time=00:00:07.94 bitrate=1320.7kbits/s speed=0.021x elapsed=0:06:17.81    \nframe=  399 fps=1.1 q=44.9 size=    1280KiB time=00:00:07.94 bitrate=1320.7kbits/s speed=0.021x elapsed=0:06:18.33    \nframe=  401 fps=1.1 q=43.8 size=    1280KiB time=00:00:07.98 bitrate=1314.0kbits/s speed=0.0211x elapsed=0:06:18.86    \nframe=  403 fps=1.1 q=45.4 size=    1280KiB time=00:00:08.02 bitrate=1307.5kbits/s speed=0.0211x elapsed=0:06:19.37    \nframe=  404 fps=1.1 q=45.7 size=    1280KiB time=00:00:08.04 bitrate=1304.2kbits/s speed=0.0212x elapsed=0:06:19.89    \nframe=  405 fps=1.1 q=39.4 size=    1280KiB time=00:00:08.06 bitrate=1301.0kbits/s speed=0.0212x elapsed=0:06:20.40    \nframe=  406 fps=1.1 q=42.7 size=    1280KiB time=00:00:08.08 bitrate=1297.8kbits/s speed=0.0212x elapsed=0:06:20.93    \nframe=  408 fps=1.1 q=45.6 size=    1280KiB time=00:00:08.12 bitrate=1291.4kbits/s speed=0.0213x elapsed=0:06:21.45    \nframe=  409 fps=1.1 q=39.3 size=    1280KiB time=00:00:08.14 bitrate=1288.2kbits/s speed=0.0213x elapsed=0:06:21.95    \nframe=  410 fps=1.1 q=42.7 size=    1280KiB time=00:00:08.16 bitrate=1285.1kbits/s speed=0.0213x elapsed=0:06:22.48    \nframe=  411 fps=1.1 q=45.5 size=    1280KiB time=00:00:08.18 bitrate=1281.9kbits/s speed=0.0214x elapsed=0:06:22.98    \nframe=  412 fps=1.1 q=44.8 size=    1280KiB time=00:00:08.20 bitrate=1278.8kbits/s speed=0.0214x elapsed=0:06:23.50    \nframe=  413 fps=1.1 q=39.0 size=    1280KiB time=00:00:08.22 bitrate=1275.7kbits/s speed=0.0214x elapsed=0:06:24.02    \nframe=  414 fps=1.1 q=42.4 size=    1280KiB time=00:00:08.24 bitrate=1272.6kbits/s speed=0.0214x elapsed=0:06:24.54    \nframe=  416 fps=1.1 q=44.7 size=    1280KiB time=00:00:08.28 bitrate=1266.4kbits/s speed=0.0215x elapsed=0:06:25.07    \nframe=  417 fps=1.1 q=44.7 size=    1280KiB time=00:00:08.30 bitrate=1263.4kbits/s speed=0.0215x elapsed=0:06:25.59    \nframe=  418 fps=1.1 q=39.1 size=    1280KiB time=00:00:08.32 bitrate=1260.3kbits/s speed=0.0215x elapsed=0:06:26.09    \nframe=  419 fps=1.1 q=42.3 size=    1280KiB time=00:00:08.34 bitrate=1257.3kbits/s speed=0.0216x elapsed=0:06:26.61    \nframe=  420 fps=1.1 q=44.7 size=    1280KiB time=00:00:08.36 bitrate=1254.3kbits/s speed=0.0216x elapsed=0:06:27.13    \nframe=  421 fps=1.1 q=45.5 size=    1536KiB time=00:00:08.38 bitrate=1501.6kbits/s speed=0.0216x elapsed=0:06:27.67    \nframe=  422 fps=1.1 q=39.2 size=    1536KiB time=00:00:08.40 bitrate=1498.0kbits/s speed=0.0216x elapsed=0:06:28.18    \nframe=  423 fps=1.1 q=43.2 size=    1536KiB time=00:00:08.42 bitrate=1494.4kbits/s speed=0.0217x elapsed=0:06:28.69    \nframe=  424 fps=1.1 q=45.5 size=    1536KiB time=00:00:08.44 bitrate=1490.9kbits/s speed=0.0217x elapsed=0:06:29.21    \nframe=  426 fps=1.1 q=39.3 size=    1536KiB time=00:00:08.48 bitrate=1483.9kbits/s speed=0.0218x elapsed=0:06:29.71    \nframe=  427 fps=1.1 q=43.3 size=    1536KiB time=00:00:08.50 bitrate=1480.4kbits/s speed=0.0218x elapsed=0:06:30.24    \nframe=  428 fps=1.1 q=44.5 size=    1536KiB time=00:00:08.52 bitrate=1476.9kbits/s speed=0.0218x elapsed=0:06:30.75    \nframe=  429 fps=1.1 q=44.5 size=    1536KiB time=00:00:08.54 bitrate=1473.5kbits/s speed=0.0218x elapsed=0:06:31.27    \nframe=  430 fps=1.1 q=44.5 size=    1536KiB time=00:00:08.56 bitrate=1470.0kbits/s speed=0.0218x elapsed=0:06:31.79    \nframe=  431 fps=1.1 q=39.2 size=    1536KiB time=00:00:08.58 bitrate=1466.6kbits/s speed=0.0219x elapsed=0:06:32.30    \nframe=  432 fps=1.1 q=42.5 size=    1536KiB time=00:00:08.60 bitrate=1463.2kbits/s speed=0.0219x elapsed=0:06:32.82    \nframe=  434 fps=1.1 q=44.5 size=    1536KiB time=00:00:08.64 bitrate=1456.4kbits/s speed=0.022x elapsed=0:06:33.33    \nframe=  435 fps=1.1 q=44.9 size=    1536KiB time=00:00:08.66 bitrate=1453.0kbits/s speed=0.022x elapsed=0:06:33.85    \nframe=  436 fps=1.1 q=39.3 size=    1536KiB time=00:00:08.68 bitrate=1449.7kbits/s speed=0.022x elapsed=0:06:34.37    \nframe=  437 fps=1.1 q=41.4 size=    1536KiB time=00:00:08.70 bitrate=1446.4kbits/s speed=0.022x elapsed=0:06:34.88    \nframe=  438 fps=1.1 q=45.5 size=    1536KiB time=00:00:08.72 bitrate=1443.0kbits/s speed=0.0221x elapsed=0:06:35.39    \nframe=  440 fps=1.1 q=45.5 size=    1536KiB time=00:00:08.76 bitrate=1436.4kbits/s speed=0.0221x elapsed=0:06:35.91    \nframe=  441 fps=1.1 q=39.1 size=    1536KiB time=00:00:08.78 bitrate=1433.2kbits/s speed=0.0221x elapsed=0:06:36.43    \nframe=  442 fps=1.1 q=44.0 size=    1536KiB time=00:00:08.80 bitrate=1429.9kbits/s speed=0.0222x elapsed=0:06:36.94    \nframe=  443 fps=1.1 q=44.7 size=    1536KiB time=00:00:08.82 bitrate=1426.7kbits/s speed=0.0222x elapsed=0:06:37.46    \nframe=  444 fps=1.1 q=44.7 size=    1536KiB time=00:00:08.84 bitrate=1423.4kbits/s speed=0.0222x elapsed=0:06:37.98    \nframe=  446 fps=1.1 q=39.3 size=    1536KiB time=00:00:08.88 bitrate=1417.0kbits/s speed=0.0223x elapsed=0:06:38.49    \nframe=  448 fps=1.1 q=45.7 size=    1536KiB time=00:00:08.92 bitrate=1410.7kbits/s speed=0.0224x elapsed=0:06:39.00    \nframe=  449 fps=1.1 q=44.6 size=    1536KiB time=00:00:08.94 bitrate=1407.5kbits/s speed=0.0224x elapsed=0:06:39.52    \nframe=  450 fps=1.1 q=45.0 size=    1536KiB time=00:00:08.96 bitrate=1404.4kbits/s speed=0.0224x elapsed=0:06:40.03    \nframe=  452 fps=1.1 q=42.4 size=    1536KiB time=00:00:09.00 bitrate=1398.1kbits/s speed=0.0225x elapsed=0:06:40.55    \nframe=  453 fps=1.1 q=44.9 size=    1536KiB time=00:00:09.02 bitrate=1395.0kbits/s speed=0.0225x elapsed=0:06:41.07    \nframe=  454 fps=1.1 q=43.7 size=    1536KiB time=00:00:09.04 bitrate=1392.0kbits/s speed=0.0225x elapsed=0:06:41.59    \nframe=  455 fps=1.1 q=38.7 size=    1536KiB time=00:00:09.06 bitrate=1388.9kbits/s speed=0.0225x elapsed=0:06:42.11    \nframe=  456 fps=1.1 q=41.9 size=    1536KiB time=00:00:09.08 bitrate=1385.8kbits/s speed=0.0226x elapsed=0:06:42.63    \nframe=  458 fps=1.1 q=44.5 size=    1536KiB time=00:00:09.12 bitrate=1379.7kbits/s speed=0.0226x elapsed=0:06:43.14    \nframe=  458 fps=1.1 q=44.5 size=    1536KiB time=00:00:09.12 bitrate=1379.7kbits/s speed=0.0226x elapsed=0:06:43.65    \nframe=  460 fps=1.1 q=42.1 size=    1536KiB time=00:00:09.16 bitrate=1373.7kbits/s speed=0.0227x elapsed=0:06:44.17    \nframe=  461 fps=1.1 q=44.7 size=    1536KiB time=00:00:09.18 bitrate=1370.7kbits/s speed=0.0227x elapsed=0:06:44.69    \nframe=  462 fps=1.1 q=44.6 size=    1536KiB time=00:00:09.20 bitrate=1367.7kbits/s speed=0.0227x elapsed=0:06:45.21    \nframe=  463 fps=1.1 q=38.7 size=    1536KiB time=00:00:09.22 bitrate=1364.8kbits/s speed=0.0227x elapsed=0:06:45.73    \nframe=  464 fps=1.1 q=41.8 size=    1536KiB time=00:00:09.24 bitrate=1361.8kbits/s speed=0.0227x elapsed=0:06:46.24    \nframe=  465 fps=1.1 q=43.9 size=    1536KiB time=00:00:09.26 bitrate=1358.9kbits/s speed=0.0228x elapsed=0:06:46.76    \nframe=  466 fps=1.1 q=43.8 size=    1536KiB time=00:00:09.28 bitrate=1356.0kbits/s speed=0.0228x elapsed=0:06:47.26    \nframe=  467 fps=1.1 q=43.9 size=    1536KiB time=00:00:09.30 bitrate=1353.0kbits/s speed=0.0228x elapsed=0:06:47.79    \nframe=  468 fps=1.1 q=39.1 size=    1536KiB time=00:00:09.32 bitrate=1350.1kbits/s speed=0.0228x elapsed=0:06:48.30    \nframe=  469 fps=1.1 q=40.2 size=    1536KiB time=00:00:09.34 bitrate=1347.2kbits/s speed=0.0228x elapsed=0:06:48.82    \nframe=  470 fps=1.1 q=44.6 size=    1536KiB time=00:00:09.36 bitrate=1344.4kbits/s speed=0.0229x elapsed=0:06:49.32    \nframe=  472 fps=1.2 q=44.8 size=    1536KiB time=00:00:09.40 bitrate=1338.6kbits/s speed=0.0229x elapsed=0:06:49.84    \nframe=  473 fps=1.2 q=39.4 size=    1536KiB time=00:00:09.42 bitrate=1335.8kbits/s speed=0.023x elapsed=0:06:50.37    \nframe=  474 fps=1.2 q=41.0 size=    1536KiB time=00:00:09.44 bitrate=1333.0kbits/s speed=0.023x elapsed=0:06:50.87    \nframe=  474 fps=1.2 q=41.0 size=    1536KiB time=00:00:09.44 bitrate=1333.0kbits/s speed=0.0229x elapsed=0:06:51.39    \nframe=  475 fps=1.2 q=44.8 size=    1536KiB time=00:00:09.46 bitrate=1330.2kbits/s speed=0.023x elapsed=0:06:51.91    \nframe=  476 fps=1.2 q=44.5 size=    1536KiB time=00:00:09.48 bitrate=1327.3kbits/s speed=0.023x elapsed=0:06:52.42    \nframe=  477 fps=1.2 q=44.6 size=    1536KiB time=00:00:09.50 bitrate=1324.6kbits/s speed=0.023x elapsed=0:06:52.94    \nframe=  478 fps=1.2 q=39.2 size=    1536KiB time=00:00:09.52 bitrate=1321.8kbits/s speed=0.023x elapsed=0:06:53.46    \nframe=  479 fps=1.2 q=42.0 size=    1536KiB time=00:00:09.54 bitrate=1319.0kbits/s speed=0.023x elapsed=0:06:53.97    \nframe=  481 fps=1.2 q=44.5 size=    1536KiB time=00:00:09.58 bitrate=1313.5kbits/s speed=0.0231x elapsed=0:06:54.48    \nframe=  482 fps=1.2 q=44.6 size=    1536KiB time=00:00:09.60 bitrate=1310.8kbits/s speed=0.0231x elapsed=0:06:55.00    \nframe=  483 fps=1.2 q=39.1 size=    1536KiB time=00:00:09.62 bitrate=1308.0kbits/s speed=0.0232x elapsed=0:06:55.52    \nframe=  484 fps=1.2 q=43.0 size=    1536KiB time=00:00:09.64 bitrate=1305.3kbits/s speed=0.0232x elapsed=0:06:56.03    \nframe=  485 fps=1.2 q=44.4 size=    1536KiB time=00:00:09.66 bitrate=1302.6kbits/s speed=0.0232x elapsed=0:06:56.56    \nframe=  487 fps=1.2 q=43.7 size=    1536KiB time=00:00:09.70 bitrate=1297.2kbits/s speed=0.0233x elapsed=0:06:57.08    \nframe=  488 fps=1.2 q=39.3 size=    1536KiB time=00:00:09.72 bitrate=1294.6kbits/s speed=0.0233x elapsed=0:06:57.60    \nframe=  489 fps=1.2 q=42.9 size=    1536KiB time=00:00:09.74 bitrate=1291.9kbits/s speed=0.0233x elapsed=0:06:58.10    \nframe=  490 fps=1.2 q=44.5 size=    1536KiB time=00:00:09.76 bitrate=1289.3kbits/s speed=0.0233x elapsed=0:06:58.62    \nframe=  491 fps=1.2 q=43.5 size=    1536KiB time=00:00:09.78 bitrate=1286.6kbits/s speed=0.0233x elapsed=0:06:59.14    \nframe=  492 fps=1.2 q=43.7 size=    1536KiB time=00:00:09.80 bitrate=1284.0kbits/s speed=0.0234x elapsed=0:06:59.66    \nframe=  493 fps=1.2 q=39.5 size=    1536KiB time=00:00:09.82 bitrate=1281.4kbits/s speed=0.0234x elapsed=0:07:00.18    \nframe=  494 fps=1.2 q=41.6 size=    1792KiB time=00:00:09.84 bitrate=1491.9kbits/s speed=0.0234x elapsed=0:07:00.69    \nframe=  496 fps=1.2 q=42.7 size=    1792KiB time=00:00:09.88 bitrate=1485.9kbits/s speed=0.0235x elapsed=0:07:01.20    \nframe=  497 fps=1.2 q=40.5 size=    1792KiB time=00:00:09.90 bitrate=1482.9kbits/s speed=0.0235x elapsed=0:07:01.73    \nframe=  498 fps=1.2 q=40.2 size=    1792KiB time=00:00:09.92 bitrate=1479.9kbits/s speed=0.0235x elapsed=0:07:02.24    \n[mp4 @ 000001693269b780] Starting second pass: moving the moov atom to the beginning of the file\n[out#0/mp4 @ 000001693269b680] video:1818KiB audio:0KiB subtitle:0KiB other streams:0KiB global headers:2KiB muxing overhead: 0.510204%\nframe=  500 fps=1.2 q=40.6 Lsize=    1827KiB time=00:00:09.96 bitrate=1502.9kbits/s speed=0.0236x elapsed=0:07:02.29    \nx265 [info]: frame I:      2, Avg QP:40.55  kb/s: 12088.20\nx265 [info]: frame P:    112, Avg QP:39.53  kb/s: 4150.71 \nx265 [info]: frame B:    386, Avg QP:44.26  kb/s: 660.07  \nx265 [info]: Weighted P-Frames: Y:0.0% UV:0.0%\n\nencoded 500 frames in 421.82s (1.19 fps), 1487.69 kb/s, Avg QP:43.19\n",
  "seconds": 422.4667856693268,
  "probe_out": {}
}